SplineFontDB: 3.0
FontName: Muli-Bold
FullName: Muli Bold
FamilyName: Muli
Weight: Bold
Copyright: Copyright (c) 2011 by vernon adams. All rights reserved.
FONDName: Muli
ItalicAngle: 0
UnderlinePosition: -237
UnderlineWidth: 119
Ascent: 1638
Descent: 410
UFOAscent: 1463
UFODescent: -400
LayerCount: 2
Layer: 0 0 "Back"  1
Layer: 1 0 "Fore"  0
FSType: 0
OS2Version: 0
OS2_WeightWidthSlopeOnly: 0
OS2_UseTypoMetrics: 0
CreationTime: 1334775453
ModificationTime: 1334777759
PfmFamily: 0
TTFWeight: 700
TTFWidth: 0
LineGap: 0
VLineGap: 0
Panose: 2 0 5 3 -4 0 0 15 0 4
OS2TypoAscent: 1978
OS2TypoAOffset: 0
OS2TypoDescent: -679
OS2TypoDOffset: 0
OS2TypoLinegap: 0
OS2WinAscent: 1978
OS2WinAOffset: 0
OS2WinDescent: 679
OS2WinDOffset: 0
HheadAscent: 1978
HheadAOffset: 0
HheadDescent: -679
HheadDOffset: 0
OS2SubXSize: 6015
OS2SubYSize: 5583
OS2SubXOff: 0
OS2SubYOff: 1188
OS2SupXSize: 6015
OS2SupYSize: 5583
OS2SupXOff: 0
OS2SupYOff: 4098
OS2StrikeYSize: 102
OS2StrikeYPos: 512
OS2FamilyClass: 2053
OS2Vendor: 'newt'
OS2CodePages: 00000000.00000000
OS2UnicodeRanges: 00000000.00000000.00000000.00000000
Lookup: 258 0 0 "'kern' Horizontal Kerning lookup 0"  {"'kern' Horizontal Kerning lookup 0 subtable"  } ['kern' ('DFLT' <'dflt' > ) ]
Lookup: 258 0 0 "'kern' Horizontal Kerning in Latin lookup 0"  {"'kern' Horizontal Kerning in Latin lookup 0 subtable"  } ['kern' ('latn' <'dflt' > ) ]
DEI: 91125
LangName: 1033 "" "" "" "" "" "" "" "Muli Bold is a trademark of vernon adams." "vernon adams" "" "Copyright (c) 2011 by vernon adams. All rights reserved." "" "" "" "" "" "" "" "Muli Bold" 
PickledData: "(dp1
S'com.superpolator.editor.generateInfo'
p2
S'Generated with LTR Superpolator version 100119_1225'
p3
sS'org.robofab.glyphOrder'
p4
(S'.notdef'
S'NULL'
S'CR'
S'space'
S'numbersign'
S'dollar'
S'percent'
S'ampersand'
S'quotesingle'
S'parenleft'
S'parenright'
S'asterisk'
S'plus'
S'comma'
S'hyphen'
S'period'
S'slash'
S'zero'
S'one'
S'two'
S'three'
S'four'
S'five'
S'six'
S'seven'
S'eight'

StartChar: A
Encoding: 65 65 1
Width: 1462
VWidth: 0
Flags: W
PickledData: "(dp1
S'org.robofab.postScriptHintData'
p2
(dp3
s."
LayerCount: 2
Fore
SplineSet
724 1179 m 1
 946 586 l 1
 498 586 l 1
 724 1179 l 1
414 364 m 1
 1038 364 l 1
 1182 0 l 1
 1454 0 l 1
 848 1456 l 1
 609 1456 l 1
 8 0 l 1
 273 0 l 1
 414 364 l 1
EndSplineSet
EndChar

StartChar: AE
Encoding: 198 198 2
Width: 2250
VWidth: 0
Flags: W
PickledData: "(dp1
S'org.robofab.postScriptHintData'
p2
(dp3
s."
LayerCount: 2
Fore
SplineSet
1038 1179 m 1
 1101 586 l 1
 653 586 l 1
 1038 1179 l 1
510 364 m 1
 1134 364 l 1
 1181 0 l 1
 2144 0 l 1
 2114 207 l 1
 1422 207 l 1
 1357 641 l 1
 1983 641 l 1
 1953 849 l 1
 1326 849 l 1
 1266 1249 l 1
 1930 1249 l 1
 1900 1456 l 1
 996 1456 l 1
 8 0 l 1
 272 0 l 1
 510 364 l 1
EndSplineSet
EndChar

StartChar: B
Encoding: 66 66 12
Width: 1296
VWidth: 0
Flags: W
PickledData: "(dp1
S'org.robofab.postScriptHintData'
p2
(dp3
s."
HStem: 0 207<632 850.783> 649 208<581 794.876> 1249 207<523 804.405>
VStem: 883 257<933.505 1177.63> 948 259<293.834 558.925>
LayerCount: 2
Fore
SplineSet
581 649 m 2xe8
 820 649 948 597 948 419 c 0
 948 275 836 207 632 207 c 2
 403 207 l 1
 403 649 l 1
 581 649 l 2xe8
401 1249 m 1
 563 1249 l 2
 744 1249 883 1220 883 1062 c 0xf0
 883 901 745 857 609 857 c 2
 401 857 l 1
 401 1249 l 1
675 0 m 2
 1027 0 1207 196 1207 414 c 0xe8
 1207 588 1110 720 936 775 c 1
 1063 840 1140 957 1140 1088 c 0
 1140 1429 777 1456 523 1456 c 2
 159 1456 l 1
 159 0 l 1
 675 0 l 2
EndSplineSet
EndChar

StartChar: C
Encoding: 67 67 13
Width: 1406
VWidth: 0
Flags: W
PickledData: "(dp1
S'org.robofab.postScriptHintData'
p2
(dp3
s."
HStem: -23 207<632.508 1056.36> 1275 208<632.35 1031>
VStem: 106 254<485.815 956.393>
LayerCount: 2
Fore
SplineSet
1246 339 m 1
 1118 237 972 184 835 184 c 0
 515 184 360 446 360 713 c 0
 360 991 515 1275 817 1275 c 0
 942 1275 1069 1228 1195 1140 c 1
 1290 1308 l 1
 1150 1429 991 1483 796 1483 c 0
 341 1483 106 1093 106 710 c 0
 106 340 337 -23 815 -23 c 0
 1019 -23 1191 33 1327 140 c 1
 1246 339 l 1
EndSplineSet
EndChar

StartChar: D
Encoding: 68 68 18
Width: 1532
VWidth: 0
Flags: W
PickledData: "(dp1
S'org.robofab.postScriptHintData'
p2
(dp3
s."
HStem: 0 207<603 870.561> 1249 207<501 854.359>
VStem: 1170 256<492.042 970.832>
LayerCount: 2
Fore
SplineSet
405 1249 m 1
 524 1249 l 2
 950 1249 1170 1119 1170 724 c 0
 1170 422 990 207 616 207 c 2
 405 207 l 1
 405 1249 l 1
165 0 m 1
 603 0 l 2
 1119 0 1426 279 1426 723 c 0
 1426 1256 996 1456 501 1456 c 2
 159 1456 l 1
 165 0 l 1
EndSplineSet
EndChar

StartChar: E
Encoding: 69 69 19
Width: 1209
VWidth: 0
Flags: W
PickledData: "(dp1
S'org.robofab.postScriptHintData'
p2
(dp3
s."
LayerCount: 2
Fore
SplineSet
403 207 m 1
 403 641 l 1
 1032 641 l 1
 1032 849 l 1
 401 849 l 1
 401 1249 l 1
 1069 1249 l 1
 1069 1456 l 1
 159 1456 l 1
 159 0 l 1
 1098 0 l 1
 1098 207 l 1
 403 207 l 1
EndSplineSet
EndChar

StartChar: Eth
Encoding: 208 208 26
Width: 1520
VWidth: 0
Flags: W
PickledData: "(dp1
S'org.robofab.postScriptHintData'
p2
(dp3
s."
HStem: 0 205<597 862.801> 1238 205<498 848.109>
VStem: 1159 254<488.101 962.228>
LayerCount: 2
Fore
SplineSet
405 611 m 1
 595 611 l 1
 595 806 l 1
 402 806 l 1
 402 1238 l 1
 519 1238 l 2
 943 1238 1159 1108 1159 718 c 0
 1159 419 984 205 610 205 c 2
 405 205 l 1
 405 611 l 1
163 611 m 1
 163 0 l 1
 597 0 l 2
 1110 0 1413 277 1413 717 c 0
 1413 1245 989 1443 498 1443 c 2
 161 1443 l 1
 161 806 l 1
 -22 806 l 1
 -22 611 l 1
 163 611 l 1
EndSplineSet
EndChar

StartChar: Euro
Encoding: 8364 8364 27
Width: 1190
VWidth: 0
Flags: W
PickledData: "(dp1
S'org.robofab.postScriptHintData'
p2
(dp3
s."
HStem: -21 203<577.362 954.307> 1222 199<596.732 947.754>
VStem: 179 251<349.818 483 929 1020.59>
LayerCount: 2
Fore
SplineSet
44 483 m 1
 179 483 l 1
 228 183 394 -21 722 -21 c 0
 849 -21 967 13 1075 86 c 1
 1075 261 l 1
 929 205 817 182 736 182 c 0
 558 182 461 304 430 483 c 1
 932 483 l 1
 956 676 l 1
 414 676 l 1
 414 679 l 2
 414 683 413 687 413 691 c 0
 412 706 411 723 411 736 c 1
 961 736 l 1
 988 929 l 1
 438 929 l 1
 487 1098 579 1222 747 1222 c 0
 842 1222 956 1186 1053 1120 c 1
 1099 1285 l 1
 1007 1378 888 1421 749 1421 c 0
 439 1421 247 1218 185 929 c 1
 69 929 l 1
 39 736 l 1
 161 736 l 1
 161 676 l 1
 70 676 l 1
 44 483 l 1
EndSplineSet
EndChar

StartChar: F
Encoding: 70 70 28
Width: 1132
VWidth: 0
Flags: W
PickledData: "(dp1
S'org.robofab.postScriptHintData'
p2
(dp3
s."
LayerCount: 2
Fore
SplineSet
402 636 m 1
 1013 636 l 1
 1013 844 l 1
 402 844 l 1
 402 1249 l 1
 1046 1249 l 1
 1046 1456 l 1
 159 1456 l 1
 159 0 l 1
 402 0 l 1
 402 636 l 1
EndSplineSet
EndChar

StartChar: G
Encoding: 71 71 29
Width: 1538
VWidth: 0
Flags: W
PickledData: "(dp1
S'org.robofab.postScriptHintData'
p2
(dp3
s."
HStem: -23 207<633.015 1120.97> 1275 208<661.809 1120.84>
VStem: 106 252<470.043 950.384>
LayerCount: 2
Fore
SplineSet
1123 581 m 1
 1123 227 l 1
 1040 201 947 184 861 184 c 0
 522 184 358 404 358 715 c 0
 358 1004 532 1275 876 1275 c 0
 991 1275 1128 1243 1261 1168 c 1
 1358 1329 l 1
 1209 1435 1049 1483 874 1483 c 0
 388 1483 106 1129 106 704 c 0
 106 267 362 -23 850 -23 c 0
 1018 -23 1192 11 1372 92 c 1
 1368 788 l 1
 778 788 l 1
 778 581 l 1
 1123 581 l 1
EndSplineSet
EndChar

StartChar: H
Encoding: 72 72 31
Width: 1488
VWidth: 0
Flags: W
PickledData: "(dp1
S'org.robofab.postScriptHintData'
p2
(dp3
s."
LayerCount: 2
Fore
SplineSet
404 643 m 1
 1090 643 l 1
 1090 0 l 1
 1329 0 l 1
 1329 1456 l 1
 1086 1456 l 1
 1086 851 l 1
 400 851 l 1
 400 1456 l 1
 159 1456 l 1
 159 0 l 1
 404 0 l 1
 404 643 l 1
EndSplineSet
EndChar

StartChar: I
Encoding: 73 73 32
Width: 591
VWidth: 0
Flags: W
PickledData: "(dp1
S'org.robofab.postScriptHintData'
p2
(dp3
s."
VStem: 175 240
LayerCount: 2
Fore
SplineSet
415 1456 m 1
 175 1456 l 1
 175 0 l 1
 415 0 l 1
 415 1456 l 1
EndSplineSet
EndChar

StartChar: J
Encoding: 74 74 41
Width: 932
VWidth: 0
Flags: W
PickledData: "(dp1
S'org.robofab.postScriptHintData'
p2
(dp3
s."
HStem: -23 207<175.684 428.47>
VStem: 527 246<311.11 508>
LayerCount: 2
Fore
SplineSet
-16 138 m 1
 71 40 183 -23 315 -23 c 0
 599 -23 773 179 773 508 c 1
 769 1456 l 1
 521 1456 l 1
 527 499 l 1
 523 336 450 184 319 184 c 0
 240 184 159 230 76 302 c 1
 -16 138 l 1
EndSplineSet
EndChar

StartChar: K
Encoding: 75 75 43
Width: 1322
VWidth: 0
Flags: W
PickledData: "(dp1
S'org.robofab.postScriptHintData'
p2
(dp3
s."
LayerCount: 2
Fore
SplineSet
401 1456 m 1
 159 1456 l 1
 159 0 l 1
 403 0 l 1
 403 639 l 1
 1004 0 l 1
 1317 0 l 1
 1076 247 824 505 583 752 c 1
 1268 1456 l 1
 966 1456 l 1
 582 1046 493 951 401 855 c 1
 401 1456 l 1
EndSplineSet
EndChar

StartChar: L
Encoding: 76 76 44
Width: 1111
VWidth: 0
Flags: W
PickledData: "(dp1
S'org.robofab.postScriptHintData'
p2
(dp3
s."
LayerCount: 2
Fore
SplineSet
1075 207 m 1
 401 207 l 1
 401 1456 l 1
 159 1456 l 1
 159 0 l 1
 1075 0 l 1
 1075 207 l 1
EndSplineSet
EndChar

StartChar: Lslash
Encoding: 321 321 46
Width: 1120
VWidth: 0
Flags: W
PickledData: "(dp1
S'org.robofab.postScriptHintData'
p2
(dp3
s."
LayerCount: 2
Fore
SplineSet
1074 205 m 1
 409 205 l 1
 409 735 l 1
 527 844 l 1
 527 1086 l 1
 407 958 l 1
 407 1443 l 1
 163 1443 l 1
 163 761 l 1
 39 643 l 1
 39 431 l 1
 166 548 l 1
 166 0 l 1
 1074 0 l 1
 1074 205 l 1
EndSplineSet
EndChar

StartChar: M
Encoding: 77 77 47
Width: 1924
VWidth: 0
Flags: W
PickledData: "(dp1
S'org.robofab.postScriptHintData'
p2
(dp3
s."
LayerCount: 2
Fore
SplineSet
392 0 m 1
 392 1041 l 1
 875 0 l 1
 1053 0 l 1
 1213 346 1378 705 1538 1053 c 1
 1538 0 l 1
 1765 0 l 1
 1765 1456 l 1
 1472 1456 l 1
 965 323 l 1
 453 1456 l 1
 159 1456 l 1
 159 0 l 1
 392 0 l 1
EndSplineSet
EndChar

StartChar: N
Encoding: 78 78 48
Width: 1545
VWidth: 0
Flags: W
PickledData: "(dp1
S'org.robofab.postScriptHintData'
p2
(dp3
s."
LayerCount: 2
Fore
SplineSet
1128 0 m 1
 1386 0 l 1
 1386 1456 l 1
 1156 1456 l 1
 1156 358 l 1
 416 1456 l 1
 159 1456 l 1
 159 0 l 1
 383 0 l 1
 383 1098 l 1
 1128 0 l 1
EndSplineSet
EndChar

StartChar: O
Encoding: 79 79 52
Width: 1662
VWidth: 0
Flags: W
PickledData: "(dp1
S'org.robofab.postScriptHintData'
p2
(dp3
s."
HStem: -23 207<631.314 1033.26> 1276 207<634.579 1033.5>
VStem: 106 261<474.36 966.617> 1293 263<475.575 988.209>
LayerCount: 2
Fore
SplineSet
367 725 m 0
 367 1019 529 1276 834 1276 c 0
 1139 1276 1293 1040 1293 733 c 0
 1293 420 1139 184 830 184 c 0
 521 184 367 421 367 725 c 0
1556 722 m 0
 1556 1182 1280 1483 838 1483 c 0
 379 1483 106 1166 106 731 c 0
 106 271 380 -23 835 -23 c 0
 1289 -23 1556 283 1556 722 c 0
EndSplineSet
EndChar

StartChar: OE
Encoding: 338 338 53
Width: 2107
VWidth: 0
Flags: W
PickledData: "(dp1
S'org.robofab.postScriptHintData'
p2
(dp3
s."
HStem: -24 191<619.389 1001.05> 1275 207<614.946 999.173>
VStem: 106 261<477.014 969.204>
LayerCount: 2
Fore
SplineSet
1335 207 m 1
 1335 641 l 1
 1885 641 l 1
 1885 849 l 1
 1333 849 l 1
 1333 1249 l 1
 1922 1249 l 1
 1922 1456 l 1
 1091 1456 l 1
 1091 1402 l 1
 971 1457 844 1482 727 1482 c 0
 390 1482 106 1134 106 731 c 0
 106 300 378 -24 720 -24 c 0
 837 -24 966 0 1091 54 c 1
 1091 0 l 1
 1951 0 l 1
 1951 207 l 1
 1335 207 l 1
367 725 m 0
 367 1019 547 1275 766 1275 c 0
 869 1275 982 1253 1091 1201 c 1
 1091 238 l 1
 983 189 872 167 771 167 c 0
 546 167 367 416 367 725 c 0
EndSplineSet
EndChar

StartChar: Omega
Encoding: 937 937 58
Width: 1603
VWidth: 0
Flags: W
PickledData: "(dp1
S'org.robofab.postScriptHintData'
p2
(dp3
s."
HStem: 1239 198<591.01 973.989>
VStem: 86 254<514.206 966.89> 1211 253<517.65 978.678>
LayerCount: 2
Fore
SplineSet
81 0 m 1
 673 0 l 1
 668 163 l 1
 474 290 340 506 340 749 c 0
 340 1037 522 1239 783 1239 c 0
 1067 1239 1211 1010 1211 746 c 0
 1211 503 1069 295 877 163 c 1
 883 0 l 1
 1438 0 l 1
 1459 196 l 1
 1416 196 1363 195 1319 195 c 1
 1283 194 1247 194 1210 194 c 1
 1353 326 1464 512 1464 758 c 0
 1464 1144 1201 1437 785 1437 c 0
 384 1437 86 1176 86 768 c 0
 86 527 181 336 333 194 c 1
 36 196 l 1
 81 0 l 1
EndSplineSet
EndChar

StartChar: Oslash
Encoding: 216 216 59
Width: 1663
VWidth: 0
Flags: W
PickledData: "(dp1
S'org.robofab.postScriptHintData'
p2
(dp3
s."
HStem: -23 207<663.765 1033.26> -1 20G<548.542 600> -1 20G<548.542 600> 1276 207<634.579 1027.45>
VStem: 106 261<471.908 966.617> 1293 263<475.575 991.856>
LayerCount: 2
Fore
SplineSet
1293 733 m 0x9c
 1293 420 1139 184 830 184 c 0
 767 184 711 194 661 212 c 1
 1154 1147 l 1
 1246 1048 1293 901 1293 733 c 0x9c
367 725 m 0
 367 1019 529 1276 834 1276 c 0
 908 1276 973 1262 1029 1237 c 1
 530 290 l 1
 421 387 367 544 367 725 c 0
1556 722 m 0
 1556 1006 1450 1229 1265 1359 c 1
 1336 1493 l 1
 1200 1561 l 1
 1131 1431 l 1
 1044 1465 946 1483 838 1483 c 0
 379 1483 106 1166 106 731 c 0
 106 435 219 208 421 83 c 1
 343 -66 l 1
 479 -134 l 1
 559 19 l 1x5c
 641 -8 734 -23 835 -23 c 0
 1289 -23 1556 283 1556 722 c 0
EndSplineSet
EndChar

StartChar: P
Encoding: 80 80 61
Width: 1259
VWidth: 0
Flags: W
PickledData: "(dp1
S'org.robofab.postScriptHintData'
p2
(dp3
s."
HStem: 560 209<577 809.984> 1249 207<524 817.981>
VStem: 933 263<869.955 1148.56>
LayerCount: 2
Fore
SplineSet
401 1249 m 1
 566 1249 l 2
 782 1249 933 1204 933 1006 c 0
 933 841 797 769 611 769 c 2
 401 769 l 1
 401 1249 l 1
401 560 m 1
 577 560 l 2
 900 560 1196 692 1196 1006 c 0
 1196 1381 868 1456 524 1456 c 2
 159 1456 l 1
 159 0 l 1
 407 0 l 1
 401 560 l 1
EndSplineSet
EndChar

StartChar: Q
Encoding: 81 81 62
Width: 1657
VWidth: 0
Flags: W
PickledData: "(dp1
S'org.robofab.postScriptHintData'
p2
(dp3
s."
HStem: -18 202<619.986 933.623> 1275 208<631.446 1029.05>
VStem: 106 256<473.373 972.985> 1287 264<468.865 990.746>
LayerCount: 2
Fore
SplineSet
1389 -298 m 1
 1389 -298 1217 -134 1136 35 c 1
 1412 144 1551 426 1551 735 c 0
 1551 1181 1275 1483 833 1483 c 0
 388 1483 106 1182 106 747 c 0
 106 290 387 -18 832 -18 c 0
 855 -18 883 -13 923 -8 c 1
 1050 -260 1254 -443 1254 -443 c 1
 1389 -298 l 1
362 723 m 0
 362 1017 521 1275 829 1275 c 0
 1137 1275 1287 1038 1287 733 c 0
 1287 420 1134 184 825 184 c 0
 516 184 362 423 362 723 c 0
EndSplineSet
EndChar

StartChar: R
Encoding: 82 82 63
Width: 1349
VWidth: 0
Flags: W
PickledData: "(dp1
S'org.robofab.postScriptHintData'
p2
(dp3
s."
HStem: 623 205<617 771.846> 1249 207<540 852.183>
VStem: 935 256<920.241 1174.26>
LayerCount: 2
Fore
SplineSet
402 1249 m 1
 631 1249 l 2
 802 1249 935 1211 935 1045 c 0
 935 874 770 828 617 828 c 2
 402 828 l 1
 402 1249 l 1
1293 0 m 1
 1192 235 l 1
 1133 389 l 2
 1080 529 1036 643 947 709 c 1
 1098 779 1191 901 1191 1058 c 0
 1191 1453 782 1456 540 1456 c 2
 159 1456 l 1
 159 0 l 1
 405 0 l 1
 405 623 l 1
 624 623 l 2
 762 623 813 570 869 422 c 1
 1025 0 l 1
 1293 0 l 1
EndSplineSet
EndChar

StartChar: S
Encoding: 83 83 67
Width: 1221
VWidth: 0
Flags: W
PickledData: "(dp1
S'org.robofab.postScriptHintData'
p2
(dp3
s."
HStem: -23 207<358.707 768.44> 1275 208<453.772 876.482>
VStem: 101 258<989.605 1194.75> 877 257<274.235 489.306>
LayerCount: 2
Fore
SplineSet
100 144 m 1
 196 49 371 -23 577 -23 c 0
 844 -23 1134 92 1134 389 c 0
 1134 640 883 759 674 845 c 0
 514 911 359 964 359 1088 c 0
 359 1224 513 1275 645 1275 c 0
 755 1275 890 1250 986 1158 c 1
 1116 1309 l 1
 1007 1444 810 1483 641 1483 c 0
 372 1483 101 1342 101 1080 c 0
 101 831 344 730 553 646 c 0
 708 583 877 511 877 393 c 0
 877 254 746 184 563 184 c 0
 439 184 289 245 201 315 c 1
 100 144 l 1
EndSplineSet
EndChar

StartChar: T
Encoding: 84 84 71
Width: 1174
VWidth: 0
Flags: W
PickledData: "(dp1
S'org.robofab.postScriptHintData'
p2
(dp3
s."
LayerCount: 2
Fore
SplineSet
704 0 m 1
 704 1249 l 1
 1163 1249 l 1
 1163 1456 l 1
 11 1456 l 1
 11 1249 l 1
 463 1249 l 1
 463 0 l 1
 704 0 l 1
EndSplineSet
EndChar

StartChar: Thorn
Encoding: 222 222 73
Width: 1296
VWidth: 0
Flags: W
PickledData: "(dp1
S'org.robofab.postScriptHintData'
p2
(dp3
s."
HStem: 481 207<606 845.162> 1165 205<552 844.268>
VStem: 958 260<788.524 1065.16>
LayerCount: 2
Fore
SplineSet
431 1165 m 1
 594 1165 l 2
 808 1165 958 1120 958 924 c 0
 958 759 823 688 639 688 c 2
 431 688 l 1
 431 1165 l 1
431 481 m 1
 606 481 l 2
 924 481 1218 612 1218 924 c 0
 1218 1295 895 1370 552 1370 c 2
 433 1370 l 1
 433 1443 l 1
 192 1443 l 1
 192 0 l 1
 431 0 l 1
 431 481 l 1
EndSplineSet
EndChar

StartChar: U
Encoding: 85 85 74
Width: 1434
VWidth: 0
Flags: W
PickledData: "(dp1
S'org.robofab.postScriptHintData'
p2
(dp3
s."
HStem: -23 207<517.234 916.766>
VStem: 129 249<329.243 570> 1056 249<329.243 570>
LayerCount: 2
Fore
SplineSet
717 184 m 0
 514 184 378 259 378 553 c 2
 378 1456 l 1
 129 1456 l 1
 129 570 l 2
 129 240 244 -23 717 -23 c 0
 1190 -23 1305 240 1305 570 c 2
 1305 1456 l 1
 1056 1456 l 1
 1056 553 l 2
 1056 259 920 184 717 184 c 0
EndSplineSet
EndChar

StartChar: V
Encoding: 86 86 79
Width: 1378
VWidth: 0
Flags: W
PickledData: "(dp1
S'org.robofab.postScriptHintData'
p2
(dp3
s."
LayerCount: 2
Fore
SplineSet
695 314 m 1
 278 1456 l 1
 6 1456 l 1
 569 0 l 1
 811 0 l 1
 1372 1456 l 1
 1119 1456 l 1
 697 317 l 1
 695 311 l 1
 695 314 l 1
EndSplineSet
EndChar

StartChar: W
Encoding: 87 87 80
Width: 2103
VWidth: 0
Flags: W
PickledData: "(dp1
S'org.robofab.postScriptHintData'
p2
(dp3
s."
LayerCount: 2
Fore
SplineSet
941 1456 m 1
 588 312 l 1
 276 1456 l 1
 14 1456 l 1
 436 0 l 1
 703 0 l 1
 1051 1142 l 1
 1393 0 l 1
 1667 0 l 1
 2088 1456 l 1
 1834 1456 l 1
 1535 308 l 1
 1174 1456 l 1
 941 1456 l 1
EndSplineSet
EndChar

StartChar: X
Encoding: 88 88 81
Width: 1376
VWidth: 0
Flags: W
PickledData: "(dp1
S'org.robofab.postScriptHintData'
p2
(dp3
s."
LayerCount: 2
Fore
SplineSet
9 0 m 1
 297 0 l 1
 421 187 554 383 680 570 c 1
 1068 0 l 1
 1367 0 l 1
 1253 164 1115 360 996 528 c 1
 947 599 895 671 846 742 c 1
 1355 1456 l 1
 1075 1456 l 1
 1006 1353 925 1236 854 1133 c 2
 704 913 l 1
 341 1456 l 1
 43 1456 l 1
 403 944 l 2
 451 874 500 808 546 741 c 1
 9 0 l 1
EndSplineSet
EndChar

StartChar: Y
Encoding: 89 89 82
Width: 1303
VWidth: 0
Flags: W
PickledData: "(dp1
S'org.robofab.postScriptHintData'
p2
(dp3
s."
LayerCount: 2
Fore
SplineSet
1314 1456 m 1
 1034 1456 l 1
 969 1343 901 1228 836 1117 c 2
 649 797 l 1
 263 1456 l 1
 -11 1456 l 1
 524 582 l 1
 524 0 l 1
 765 0 l 1
 765 584 l 1
 1314 1456 l 1
EndSplineSet
EndChar

StartChar: Z
Encoding: 90 90 85
Width: 1235
VWidth: 0
Flags: W
PickledData: "(dp1
S'org.robofab.postScriptHintData'
p2
(dp3
s."
LayerCount: 2
Fore
SplineSet
1167 207 m 5
 372 207 l 5
 1169 1330 l 5
 1169 1456 l 5
 71 1456 l 5
 71 1249 l 5
 836 1249 l 5
 44 130 l 5
 44 0 l 5
 1167 0 l 5
 1167 207 l 5
EndSplineSet
EndChar

StartChar: a
Encoding: 97 97 89
Width: 1262
VWidth: 0
Flags: W
PickledData: "(dp1
S'org.robofab.postScriptHintData'
p2
(dp3
s."
HStem: -23 191<460.648 766.628> 861 191<462.137 770.956>
VStem: 100 235<304.708 719.27> 898 236<285.736 745.867>
LayerCount: 2
Fore
SplineSet
624 168 m 0
 420 168 335 317 335 515 c 0
 335 717 426 861 624 861 c 0
 822 861 911 717 911 515 c 0
 911 318 828 168 624 168 c 0
593 1052 m 1
 255 1052 100 781 100 504 c 0
 100 254 254 -23 593 -23 c 0
 706 -23 837 32 898 155 c 1
 898 0 l 1
 1134 0 l 1
 1134 1026 l 1
 903 1026 l 1
 903 879 l 1
 847 989 721 1051 593 1052 c 1
EndSplineSet
EndChar

StartChar: acute
Encoding: 180 180 93
Width: 607
VWidth: 0
Flags: W
PickledData: "(dp1
S'org.robofab.postScriptHintData'
p2
(dp3
s."
HStem: 1148 315
VStem: 45 562
LayerCount: 2
Fore
SplineSet
304 1463 m 1
 607 1463 l 1
 259 1148 l 1
 45 1148 l 1
 304 1463 l 1
EndSplineSet
EndChar

StartChar: ae
Encoding: 230 230 95
Width: 1807
VWidth: 0
Flags: W
PickledData: "(dp1
S'org.robofab.postScriptHintData'
p2
(dp3
s."
HStem: -23 190<330.613 623.202 1080.98 1433.41> 447 190<357.031 687> 861 191<329.605 653.474 1064.74 1353.9>
VStem: 61 230<207.969 389.084> 726 229<298.693 448>
LayerCount: 2
Fore
SplineSet
959 636 m 1
 989 771 1076 869 1219 869 c 0
 1330 869 1425 792 1443 636 c 1
 959 636 l 1
726 448 m 1
 723 304 664 167 469 167 c 0
 374 167 291 204 291 302 c 0
 291 431 447 445 616 447 c 2
 726 448 l 1
1560 292 m 1
 1460 210 1355 168 1251 168 c 0
 1074 168 963 265 955 478 c 1
 1644 478 l 1
 1648 494 1649 512 1649 523 c 0
 1649 818 1512 1052 1207 1052 c 0
 1059 1052 943 985 864 881 c 1
 801 1000 635 1052 551 1052 c 0
 368 1052 232 1001 140 920 c 1
 208 736 l 1
 311 830 428 861 531 861 c 0
 661 861 725 750 726 637 c 1
 687 637 l 2
 270 637 61 567 61 292 c 0
 61 89 221 -23 459 -23 c 0
 613 -23 767 52 840 198 c 1
 926 64 1063 -23 1244 -23 c 0
 1391 -23 1515 19 1628 107 c 1
 1560 292 l 1
EndSplineSet
EndChar

StartChar: ampersand
Encoding: 38 38 98
Width: 1647
VWidth: 0
Flags: W
PickledData: "(dp1
S'org.robofab.postScriptHintData'
p2
(dp3
s."
HStem: -27 200<463.03 836.833> 1254 190<539.08 765.888>
VStem: 90 253<288.167 547.576> 265 246<1004.91 1226.68> 794 245<1034.01 1225.59> 1214 233<624.104 874>
LayerCount: 2
Fore
SplineSet
511 1134 m 0xdc
 511 1217 574 1254 654 1254 c 0
 719 1254 794 1224 794 1136 c 0
 794 1053 714 989 619 934 c 1
 552 997 511 1059 511 1134 c 0xdc
641 173 m 0
 469 173 343 273 343 413 c 0xec
 343 551 452 627 573 691 c 1
 967 304 l 1
 882 231 783 173 641 173 c 0
90 412 m 0
 90 136 329 -27 640 -27 c 0
 842 -27 1003 55 1117 156 c 1
 1222 54 1291 4 1435 -17 c 1
 1624 129 l 1
 1426 172 1367 196 1264 296 c 1
 1376 451 1447 672 1447 874 c 1
 1214 919 l 1
 1214 753 1180 596 1100 462 c 1
 769 795 l 1
 914 880 1039 998 1039 1145 c 0
 1039 1350 842 1444 644 1444 c 0
 437 1444 265 1341 265 1139 c 0xdc
 265 1020 329 940 430 838 c 1
 250 740 90 623 90 412 c 0
EndSplineSet
EndChar

StartChar: approxequal
Encoding: 8776 8776 100
Width: 1351
VWidth: 0
Flags: W
PickledData: "(dp1
S'org.robofab.postScriptHintData'
p2
(dp3
s."
HStem: 246 176<758.474 941.226> 399 178<358.573 567.728> 596 172<740.395 939.246> 750 174<362.791 555.634>
VStem: 113 190<279.42 339.631 625.152 685.218> 1001 182<492.31 543.702 841.386 893.369>
LayerCount: 2
Fore
SplineSet
1000 933 m 1x2c
 962 829 922 768 865 768 c 0x2c
 832 768 771 794 695 837 c 1
 603 892 530 924 440 924 c 0
 271 924 152 810 112 628 c 1
 305 587 l 1
 335 681 375 750 437 750 c 0x1c
 480 750 531 722 587 688 c 0
 694 623 768 596 861 596 c 0
 1039 596 1140 711 1182 890 c 1
 1000 933 l 1x2c
1001 587 m 1
 964 483 924 422 866 422 c 0x8c
 844 422 807 441 768 462 c 0
 749.276056489 471.854707111 730.552112978 481.130555567 708 490 c 1
 628 532 536 577 441 577 c 0
 278 577 161 463 113 283 c 1
 303 232 l 1
 328 335 373 399 442 399 c 0x4c
 478 399 537 371 591 343 c 1
 692 283 780 246 862 246 c 0x8c
 1044 246 1139 365 1183 540 c 1
 1001 587 l 1
EndSplineSet
EndChar

StartChar: asciicircum
Encoding: 94 94 102
Width: 1457
VWidth: 0
Flags: W
PickledData: "(dp1
S'org.robofab.postScriptHintData'
p2
(dp3
s."
LayerCount: 2
Fore
SplineSet
369 517 m 1
 450 679 543 860 630 1027 c 1
 647 1062 669 1103 688 1138 c 1
 1023 517 l 1
 1260 517 l 1
 767 1405 l 1
 615 1405 l 1
 128 517 l 1
 369 517 l 1
EndSplineSet
EndChar

StartChar: asciitilde
Encoding: 126 126 103
Width: 1458
VWidth: 0
Flags: W
PickledData: "(dp1
S'org.robofab.postScriptHintData'
p2
(dp3
s."
HStem: 383 193<790.269 987.665> 535 191<405.092 625.61>
LayerCount: 2
Fore
SplineSet
479 726 m 0x40
 301 726 182 583 152 431 c 1
 335 343 l 1
 359 438 409 535 485 535 c 0x40
 530 535 595 504 664 474 c 1
 687 463 l 1
 769 421 854 383 918 383 c 0
 1092 383 1208 515 1247 693 c 1
 1047 754 l 1
 1026 663 976 576 916 576 c 0x80
 887 576 838 599 785 623 c 1
 765 633 l 1
 675 675 566 726 479 726 c 0x40
EndSplineSet
EndChar

StartChar: asterisk
Encoding: 42 42 104
Width: 1065
VWidth: 0
Flags: W
PickledData: "(dp1
S'org.robofab.postScriptHintData'
p2
(dp3
s."
LayerCount: 2
Fore
SplineSet
515 906 m 1
 678 663 l 1
 857 783 l 1
 651 1012 l 1
 921 1120 l 1
 841 1292 l 1
 596 1175 l 1
 626 1444 l 1
 404 1444 l 1
 434 1175 l 1
 189 1292 l 1
 109 1120 l 1
 379 1012 l 1
 173 783 l 1
 352 663 l 1
 515 906 l 1
EndSplineSet
EndChar

StartChar: at
Encoding: 64 64 105
Width: 1895
VWidth: 0
Flags: W
PickledData: "(dp1
S'org.robofab.postScriptHintData'
p2
(dp3
s."
HStem: -102 147<682.153 1211.99> 211 122<1209.89 1358.73> 248 178<716.049 922.615> 943 189<832.691 1035.08> 1308 139<723.022 1199.32>
VStem: 99 194<415.293 898.468> 455 230<455.5 765.59> 1056 153<334.416 544.397 612 617.964> 1533 157<552.358 997.523>
LayerCount: 2
Fore
SplineSet
685 576 m 0xbf80
 685 739 794 943 949 943 c 0
 1027 943 1056 891 1056 801 c 0
 1056 612 950 426 808 426 c 0
 728 426 685 486 685 576 c 0xbf80
1690 772 m 0
 1690 1169 1359 1447 938 1447 c 0
 468 1447 99 1110 99 671 c 0
 99 229 440 -102 918 -102 c 0
 1128 -102 1328 -36 1487 80 c 1
 1417 180 l 1
 1267 91 1098 45 936 45 c 0
 600 45 293 242 293 652 c 0
 293 1089 636 1308 962 1308 c 0
 1255 1308 1533 1131 1533 778 c 0
 1533 543 1397 333 1244 333 c 0xdf80
 1217 333 1209 357 1209 380 c 0
 1209 421 1229 498 1253 618 c 2
 1347 1090 l 1
 1139 1090 l 1
 1117 960 l 1
 1085 1080 1005 1132 911 1132 c 0
 714 1132 455 910 455 606 c 0
 455 366 618 248 777 248 c 0xbf80
 896 248 1013 321 1069 472 c 1
 1065 447 1063 425 1063 404 c 0
 1063 254 1167 211 1239 211 c 0xdf80
 1505 211 1690 517 1690 772 c 0
EndSplineSet
EndChar

StartChar: b
Encoding: 98 98 107
Width: 1241
VWidth: 0
Flags: W
PickledData: "(dp1
S'org.robofab.postScriptHintData'
p2
(dp3
s."
HStem: -23 191<479.445 771.204> 861 191<481.011 770.209>
VStem: 136 235<283.528 748.004> 894 247<307.521 719.72>
LayerCount: 2
Fore
SplineSet
627 168 m 0
 437 168 358 328 358 515 c 0
 358 707 443 861 627 861 c 0
 811 861 894 707 894 515 c 0
 894 328 817 168 627 168 c 0
371 1463 m 1
 136 1463 l 1
 136 272 l 2
 136 243 135 215 128 0 c 1
 369 0 l 1
 371 95 l 1
 458 -10 573 -23 674 -23 c 0
 936 -23 1141 182 1141 508 c 0
 1141 802 978 1052 657 1052 c 0
 526 1052 432 1004 371 952 c 1
 371 1463 l 1
EndSplineSet
EndChar

StartChar: backslash
Encoding: 92 92 108
Width: 706
VWidth: 0
Flags: W
PickledData: "(dp1
S'org.robofab.postScriptHintData'
p2
(dp3
s."
LayerCount: 2
Fore
SplineSet
802 -112 m 1
 134 1424 l 1
 -115 1424 l 1
 557 -112 l 1
 802 -112 l 1
EndSplineSet
EndChar

StartChar: bar
Encoding: 124 124 109
Width: 500
VWidth: 0
Flags: W
PickledData: "(dp1
S'org.robofab.postScriptHintData'
p2
(dp3
s."
VStem: 123 225
LayerCount: 2
Fore
SplineSet
348 -460 m 1
 348 1512 l 1
 123 1512 l 1
 123 -460 l 1
 348 -460 l 1
EndSplineSet
EndChar

StartChar: braceleft
Encoding: 123 123 110
Width: 627
VWidth: 0
Flags: W
PickledData: "(dp1
S'org.robofab.postScriptHintData'
p2
(dp3
s."
HStem: -245 186<468.475 578> 505 168<51 140.566> 1240 184<467.678 578>
VStem: 197 229<-18.5397 465.365 731.16 896 1099 1196.99>
LayerCount: 2
Fore
SplineSet
200 896 m 1
 197 782 158 683 48 673 c 1
 51 505 l 1
 201 492 195 391 196 289 c 2
 197 42 l 2
 198 -156 351 -228 579 -245 c 1
 578 -59 l 1
 451 -59 426 -5 426 232 c 0
 426 260.339235411 427.911034536 287.722953554 429.091286199 301.932748751 c 0
 430.328459575 310.468787095 430.999999965 321.27938937 431 335 c 0
 431 397 425 523 337 592 c 1
 390 647 433 734 435 847 c 1
 436 1115 l 2
 436 1187 497 1239 579 1240 c 1
 578 1424 l 1
 290 1424 194 1304 194 1099 c 1
 195 1070 196 1050 196 1035 c 0
 197 1013 197 993 197 993 c 1
 197 978 l 2
 197 965 199 942 200 896 c 1
EndSplineSet
EndChar

StartChar: braceright
Encoding: 125 125 111
Width: 627
VWidth: 0
Flags: W
PickledData: "(dp1
S'org.robofab.postScriptHintData'
p2
(dp3
s."
HStem: 504 168<463.207 562> 1240 185<32 152.497>
VStem: 172 243<-27.2891 184 330 344 345.266 461.338 721.14 864 1069 1220.83>
LayerCount: 2
Fore
SplineSet
32 1240 m 1
 108 1239 171 1231 172 1107 c 1
 172 848 l 1
 173 698 244 632 278 602 c 1
 283 596 l 1
 191 539 172 459 172 404 c 0
 172 365 215 345 220 344 c 1
 181 344 l 1
 181 329 182 308 182 294 c 2
 182 255 l 2
 182 242 183 229 183 218 c 2
 183 184 l 2
 183 36 168 -59 30 -59 c 1
 31 -245 l 1
 269 -215 419 -156 419 40 c 1
 416 259 l 1
 416 310 l 2
 416 316 415 323 415 330 c 0
 415 407 430 486 562 504 c 1
 562 672 l 1
 471 680 412 746 408 864 c 1
 410 941 410 954 410 967 c 0
 410 973 411 978 411 989 c 0
 411 1002 412 1026 413 1069 c 1
 413 1278 355 1425 81 1425 c 2
 54 1425 l 2
 50 1425 34 1424 31 1424 c 1
 32 1240 l 1
EndSplineSet
EndChar

StartChar: bracketleft
Encoding: 91 91 112
Width: 628
VWidth: 0
Flags: W
PickledData: "(dp1
S'org.robofab.postScriptHintData'
p2
(dp3
s."
VStem: 146 420
LayerCount: 2
Fore
SplineSet
566 -63 m 1
 384 -63 l 1
 384 1244 l 1
 565 1244 l 1
 565 1424 l 1
 146 1424 l 1
 146 -243 l 1
 566 -243 l 1
 566 -63 l 1
EndSplineSet
EndChar

StartChar: bracketright
Encoding: 93 93 113
Width: 628
VWidth: 0
Flags: W
PickledData: "(dp1
S'org.robofab.postScriptHintData'
p2
(dp3
s."
LayerCount: 2
Fore
SplineSet
52 1244 m 1
 226 1244 l 1
 226 -63 l 1
 47 -63 l 1
 47 -243 l 1
 465 -243 l 1
 465 1424 l 1
 12 1424 l 1
 52 1244 l 1
EndSplineSet
EndChar

StartChar: breve
Encoding: 728 728 114
Width: 629
VWidth: 0
Flags: W
PickledData: "(dp1
S'org.robofab.postScriptHintData'
p2
(dp3
s."
HStem: 1142 166<177.777 406.223>
VStem: -20 165<1343.23 1427> 439 165<1343.23 1427>
LayerCount: 2
Fore
SplineSet
292 1308 m 0
 230 1308 154 1332 145 1427 c 1
 -20 1427 l 1
 -6 1232 106 1142 292 1142 c 0
 478 1142 590 1232 604 1427 c 1
 439 1427 l 1
 430 1332 354 1308 292 1308 c 0
EndSplineSet
EndChar

StartChar: brokenbar
Encoding: 166 166 115
Width: 500
VWidth: 0
Flags: W
PickledData: "(dp1
S'org.robofab.postScriptHintData'
p2
(dp3
s."
LayerCount: 2
Fore
SplineSet
123 412 m 1
 123 -460 l 1
 350 -460 l 1
 350 412 l 1
 123 412 l 1
348 581 m 1
 348 1512 l 1
 121 1512 l 1
 121 581 l 1
 348 581 l 1
EndSplineSet
EndChar

StartChar: bullet
Encoding: 8226 8226 116
Width: 989
VWidth: 0
Flags: W
PickledData: "(dp1
S'org.robofab.postScriptHintData'
p2
(dp3
s."
HStem: 362 648<305.247 650.001>
VStem: 121 717<539.191 834.918>
LayerCount: 2
Fore
SplineSet
838 690 m 0
 838 865 677 1010 479 1010 c 0
 290 1010 121 859 121 683 c 0
 121 511 275 362 478 362 c 0
 669 362 838 515 838 690 c 0
EndSplineSet
EndChar

StartChar: c
Encoding: 99 99 117
Width: 1086
VWidth: 0
Flags: W
PickledData: "(dp1
S'org.robofab.postScriptHintData'
p2
(dp3
s."
HStem: -23 191<479.572 813.943> 861 191<486.326 797.234>
VStem: 100 245<311.417 705.161>
LayerCount: 2
Fore
SplineSet
924 273 m 1
 819 204 724 168 631 168 c 0
 440 168 345 315 345 507 c 0
 345 704 454 861 634 861 c 0
 717 861 809 826 891 751 c 1
 995 909 l 1
 910 998 772 1052 616 1052 c 0
 286 1052 100 804 100 506 c 0
 100 219 275 -23 621 -23 c 0
 763 -23 884 14 993 91 c 1
 924 273 l 1
EndSplineSet
EndChar

StartChar: caron
Encoding: 711 711 119
Width: 699
VWidth: 0
Flags: W
PickledData: "(dp1
S'org.robofab.postScriptHintData'
p2
(dp3
s."
LayerCount: 2
Fore
SplineSet
460 1464 m 1
 418 1408 373 1350 329 1294 c 1
 198 1464 l 1
 -36 1464 l 1
 238 1096 l 1
 432 1096 l 1
 704 1464 l 1
 460 1464 l 1
EndSplineSet
EndChar

StartChar: cedilla
Encoding: 184 184 122
Width: 529
VWidth: 0
Flags: W
PickledData: "(dp1
S'org.robofab.postScriptHintData'
p2
(dp3
s."
HStem: -369 142<23.2587 267.353> -100 181<136 232.873>
VStem: 271 211<-222.966 -117.022>
LayerCount: 2
Fore
SplineSet
9 -345 m 1
 86 -357 163 -369 220 -369 c 0
 390 -369 482 -278 482 -189 c 0
 482 -115 403 -41 233 -23 c 1
 251 81 l 1
 136 81 l 1
 105 -100 l 1
 244 -100 271 -135 271 -168 c 0
 271 -198 248 -227 202 -227 c 0
 165 -227 102 -219 23 -209 c 1
 9 -345 l 1
EndSplineSet
EndChar

StartChar: cent
Encoding: 162 162 123
Width: 1086
VWidth: 0
Flags: W
PickledData: "(dp1
S'org.robofab.postScriptHintData'
p2
(dp3
s."
HStem: -19 196<461.859 553>
VStem: 100 245<312.618 702.968>
LayerCount: 2
Fore
SplineSet
345 507 m 0
 345 672 422 810 553 849 c 1
 553 177 l 1
 414 212 345 343 345 507 c 0
924 273 m 1
 846 222 775 189 705 175 c 1
 705 853 l 1
 767 838 832 805 891 751 c 1
 995 909 l 1
 926 980 824 1029 705 1046 c 1
 705 1250 l 1
 553 1250 l 1
 553 1049 l 1
 262 1019 100 784 100 506 c 0
 100 238 252 10 553 -19 c 1
 553 -236 l 1
 705 -236 l 1
 705 -18 l 1
 812 -6 906 29 993 91 c 1
 924 273 l 1
EndSplineSet
EndChar

StartChar: circumflex
Encoding: 710 710 124
Width: 699
VWidth: 0
Flags: W
PickledData: "(dp1
S'org.robofab.postScriptHintData'
p2
(dp3
s."
LayerCount: 2
Fore
SplineSet
121 1096 m 1
 198 1189 l 1
 264 1272 l 1
 407 1096 l 1
 626 1096 l 1
 363 1465 l 1
 168 1465 l 1
 -90 1096 l 1
 121 1096 l 1
EndSplineSet
EndChar

StartChar: colon
Encoding: 58 58 125
Width: 540
VWidth: 0
Flags: W
PickledData: "(dp1
S'org.robofab.postScriptHintData'
p2
(dp3
s."
VStem: 113 289
LayerCount: 2
Fore
SplineSet
402 251 m 1
 113 251 l 1
 113 -11 l 1
 402 -11 l 1
 402 251 l 1
401 1141 m 1
 113 1141 l 1
 113 879 l 1
 402 879 l 1
 401 1141 l 1
EndSplineSet
EndChar

StartChar: comma
Encoding: 44 44 126
Width: 540
VWidth: 0
Flags: W
PickledData: "(dp1
S'org.robofab.postScriptHintData'
p2
(dp3
s."
HStem: -240 499
LayerCount: 2
Fore
SplineSet
30 -240 m 1
 229 -240 l 1
 406 259 l 1
 141 259 l 1
 30 -240 l 1
EndSplineSet
EndChar

StartChar: commaaccent
Encoding: 63171 63171 127
Width: 599
VWidth: 0
Flags: W
PickledData: "(dp1
S'org.robofab.postScriptHintData'
p2
(dp3
s."
HStem: -623 499
LayerCount: 2
Fore
SplineSet
61 -623 m 1
 260 -623 l 1
 436 -124 l 1
 171 -124 l 1
 61 -623 l 1
EndSplineSet
EndChar

StartChar: copyright
Encoding: 169 169 128
Width: 1829
VWidth: 0
Flags: W
PickledData: "(dp1
S'org.robofab.postScriptHintData'
p2
(dp3
s."
HStem: -23 119<637.853 1126.89> 287 171<762.63 1098.04> 986 171<762.63 1098.04> 1363 120<635.736 1123.86>
VStem: 72 143<510.268 960.936> 443 208<570.609 873.391> 1547 144<500.436 950.557>
LayerCount: 2
Fore
SplineSet
885 -23 m 0
 1328 -23 1691 319 1691 730 c 0
 1691 1136 1328 1483 877 1483 c 0
 437 1483 72 1141 72 733 c 0
 72 321 431 -23 885 -23 c 0
883 96 m 0
 505 96 215 372 215 733 c 0
 215 1091 503 1363 880 1363 c 0
 1257 1363 1547 1090 1547 728 c 0
 1547 371 1258 96 883 96 c 0
443 722 m 0
 443 455 653 287 900 287 c 0
 996 287 1098 314 1196 374 c 1
 1145 525 l 1
 1059 478 981 458 914 458 c 0
 751 458 651 576 651 722 c 0
 651 868 751 986 914 986 c 0
 981 986 1059 966 1145 919 c 1
 1196 1070 l 1
 1098 1130 996 1157 900 1157 c 0
 653 1157 443 989 443 722 c 0
EndSplineSet
EndChar

StartChar: currency
Encoding: 164 164 129
Width: 1238
VWidth: 0
Flags: W
PickledData: "(dp1
S'org.robofab.postScriptHintData'
p2
(dp3
s."
HStem: 266 99<448.854 699.15> 949 102<415.148 674.269>
VStem: 172 129<483.108 829.895> 808 130<482.965 833.734>
LayerCount: 2
Fore
SplineSet
808 656 m 0
 808 503 723 365 557 365 c 0
 387 365 301 500 301 656 c 0
 301 809 387 949 553 949 c 0
 728 949 808 814 808 656 c 0
558 1051 m 0
 505 1051 458 1045 418 1029 c 1
 271 1299 l 1
 197 1269 l 1
 245 1180 297 1086 345 996 c 1
 231 929 172 800 172 655 c 0
 172 496 244 360 383 299 c 1
 293 62 l 1
 364 32 l 1
 457 274 l 1
 486 268 515 266 552 266 c 0
 615 266 673 279 723 299 c 1
 868 32 l 1
 937 64 l 1
 789 337 l 1
 889 407 938 529 938 659 c 0
 938 813 875 943 741 1010 c 1
 841 1271 l 1
 765 1299 l 1
 735 1217 697 1122 666 1039 c 1
 632 1047 595 1051 558 1051 c 0
EndSplineSet
EndChar

StartChar: d
Encoding: 100 100 130
Width: 1243
VWidth: 0
Flags: W
PickledData: "(dp1
S'org.robofab.postScriptHintData'
p2
(dp3
s."
HStem: -23 191<469.412 758.078> 861 191<470.407 756.721>
VStem: 100 247<301.267 719.72> 870 235<289.802 741.801>
LayerCount: 2
Fore
SplineSet
613 168 m 0
 423 168 347 328 347 515 c 0
 347 707 429 861 613 861 c 0
 797 861 877 707 877 515 c 0
 877 328 803 168 613 168 c 0
870 952 m 1
 809 1004 715 1052 584 1052 c 0
 263 1052 100 802 100 508 c 0
 100 182 305 -23 567 -23 c 0
 668 -23 783 -10 870 95 c 1
 872 0 l 1
 1113 0 l 1
 1106 215 1105 243 1105 272 c 2
 1105 1463 l 1
 870 1463 l 1
 870 952 l 1
EndSplineSet
EndChar

StartChar: dagger
Encoding: 8224 8224 131
Width: 1022
VWidth: 0
Flags: W
PickledData: "(dp1
S'org.robofab.postScriptHintData'
p2
(dp3
s."
LayerCount: 2
Fore
SplineSet
374 106 m 1
 552 106 l 1
 552 875 l 1
 919 875 l 1
 919 1064 l 1
 580 1064 l 1
 580 1424 l 1
 379 1424 l 1
 379 1064 l 1
 72 1064 l 1
 72 875 l 1
 374 875 l 1
 374 106 l 1
EndSplineSet
EndChar

StartChar: daggerdbl
Encoding: 8225 8225 132
Width: 1022
VWidth: 0
Flags: W
PickledData: "(dp1
S'org.robofab.postScriptHintData'
p2
(dp3
s."
VStem: 341 236<1134.84 1424> 390 187<1110 1194.42>
LayerCount: 2
Fore
SplineSet
406 591 m 1x40
 66 591 l 1
 66 408 l 1
 426 408 l 1
 386 106 l 1
 637 106 l 1
 627 171 611 276 600 346 c 2
 590 408 l 1
 908 408 l 1
 908 591 l 1
 561 591 l 1
 561 920 l 1
 917 920 l 1
 917 1110 l 1
 577 1110 l 1x40
 577 1424 l 1
 341 1424 l 1x80
 349 1362 361 1282 372 1216 c 2
 390 1110 l 1
 70 1110 l 1
 70 920 l 1
 406 920 l 1
 406 591 l 1x40
EndSplineSet
EndChar

StartChar: degree
Encoding: 176 176 133
Width: 844
VWidth: 0
Flags: W
PickledData: "(dp1
S'org.robofab.postScriptHintData'
p2
(dp3
s."
HStem: 802 183<288.816 505.535> 1234 183<279.344 505.141>
VStem: 52 196<1024.26 1200.15> 541 199<1022.16 1195.79>
LayerCount: 2
Fore
SplineSet
740 1108 m 0
 740 1279 579 1417 396 1417 c 0
 212 1417 52 1283 52 1116 c 0
 52 948 214 802 398 802 c 0
 580 802 740 941 740 1108 c 0
248 1116 m 0
 248 1187 318 1234 397 1234 c 0
 472 1234 541 1181 541 1112 c 0
 541 1040 477 985 397 985 c 0
 318 985 248 1045 248 1116 c 0
EndSplineSet
EndChar

StartChar: dieresis
Encoding: 168 168 134
Width: 743
VWidth: 0
Flags: W
PickledData: "(dp1
S'org.robofab.postScriptHintData'
p2
(dp3
s."
HStem: 1114 220
LayerCount: 2
Fore
SplineSet
711 1334 m 1
 476 1334 l 1
 476 1114 l 1
 711 1114 l 1
 711 1334 l 1
265 1334 m 1
 29 1334 l 1
 29 1114 l 1
 265 1114 l 1
 265 1334 l 1
EndSplineSet
EndChar

StartChar: divide
Encoding: 247 247 135
Width: 1458
VWidth: 0
Flags: W
PickledData: "(dp1
S'org.robofab.postScriptHintData'
p2
(dp3
s."
LayerCount: 2
Fore
SplineSet
842 1107 m 1
 555 1107 l 1
 555 845 l 1
 842 845 l 1
 842 1107 l 1
845 250 m 1
 558 250 l 1
 558 -13 l 1
 846 -13 l 1
 845 250 l 1
1229 454 m 1
 1229 651 l 1
 166 651 l 1
 166 454 l 1
 1229 454 l 1
EndSplineSet
EndChar

StartChar: dollar
Encoding: 36 36 136
Width: 1230
VWidth: 0
Flags: W
PickledData: "(dp1
S'org.robofab.postScriptHintData'
p2
(dp3
s."
HStem: -23 207<380.221 577 669 780.196> 1271 209<447.704 584 669 870.143>
VStem: 105 258<983.136 1195.47> 881 257<269.361 479.215>
LayerCount: 2
Fore
SplineSet
881 383 m 0
 881 277 796 211 669 191 c 1
 669 592 l 1
 784 538 881 473 881 383 c 0
363 1088 m 0
 363 1202 471 1256 584 1271 c 1
 584 872 l 1
 462 926 363 989 363 1088 c 0
103 166 m 1
 167 64 344 -23 561 -23 c 2
 584 -23 l 1
 584 -215 l 1
 669 -215 l 1
 669 -17 l 1
 910 7 1138 120 1138 379 c 0
 1138 630 887 746 669 835 c 1
 669 1275 l 1
 775 1271 897 1241 968 1141 c 1
 1102 1296 l 1
 1034 1435 838 1479 669 1483 c 1
 669 1627 l 1
 584 1627 l 1
 584 1480 l 1
 336 1461 105 1322 105 1080 c 0
 105 831 353 722 584 629 c 1
 584 184 l 1
 577 184 l 2
 449 184 278 255 224 331 c 1
 103 166 l 1
EndSplineSet
EndChar

StartChar: dotaccent
Encoding: 729 729 137
Width: 524
VWidth: 0
Flags: W
PickledData: "(dp1
S'org.robofab.postScriptHintData'
p2
(dp3
s."
HStem: 1167 219
VStem: 139 234
LayerCount: 2
Fore
SplineSet
373 1167 m 1
 373 1386 l 1
 139 1386 l 1
 139 1167 l 1
 373 1167 l 1
EndSplineSet
EndChar

StartChar: dotaccentcmb
Encoding: 775 775 138
Width: 524
VWidth: 0
Flags: W
PickledData: "(dp1
S'org.robofab.postScriptHintData'
p2
(dp3
s."
HStem: 1167 219
VStem: 139 234
LayerCount: 2
Fore
SplineSet
373 1167 m 1
 373 1386 l 1
 139 1386 l 1
 139 1167 l 1
 373 1167 l 1
EndSplineSet
EndChar

StartChar: dotlessi
Encoding: 305 305 139
Width: 503
VWidth: 0
Flags: W
PickledData: "(dp1
S'org.robofab.postScriptHintData'
p2
(dp3
s."
VStem: 123 237
LayerCount: 2
Fore
SplineSet
360 1026 m 1
 123 1026 l 1
 123 0 l 1
 360 0 l 1
 360 1026 l 1
EndSplineSet
EndChar

StartChar: dotlessj
Encoding: 65539 -1 140
Width: 503
VWidth: 0
Flags: W
HStem: -402 200<-130.924 68.7634>
VStem: 128 235<-140.008 96>
LayerCount: 2
Fore
SplineSet
-134 -383 m 1
 -68 -396 -17 -402 25 -402 c 0
 323 -402 363 -129 363 96 c 2
 363 1026 l 1
 128 1026 l 1
 128 62 l 2
 128 -119 69 -202 -17 -202 c 0
 -36 -202 -68 -198 -134 -183 c 1
 -134 -383 l 1
EndSplineSet
EndChar

StartChar: e
Encoding: 101 101 141
Width: 1179
VWidth: 0
Flags: W
PickledData: "(dp1
S'org.robofab.postScriptHintData'
p2
(dp3
s."
HStem: -23 191<484.312 861> 869 183<479.336 771.584>
VStem: 100 248<307.78 478>
LayerCount: 2
Fore
SplineSet
352 636 m 1
 383 771 479 869 627 869 c 0
 753 869 860 792 881 636 c 1
 352 636 l 1
998 292 m 1
 889 210 772 168 659 168 c 0
 476 168 356 265 348 478 c 1
 1082 478 l 1
 1086 494 1087 512 1087 523 c 0
 1087 818 941 1052 615 1052 c 0
 288 1052 100 803 100 512 c 0
 100 197 306 -23 652 -23 c 0
 811 -23 944 19 1066 107 c 1
 998 292 l 1
EndSplineSet
EndChar

StartChar: eight
Encoding: 56 56 146
Width: 1201
VWidth: 0
Flags: W
PickledData: "(dp1
S'org.robofab.postScriptHintData'
p2
(dp3
s."
HStem: -23 199<433.981 776.46> 1235 191<447.505 752.367>
VStem: 100 252<255.121 514.434> 133 245<929.297 1168.92> 825 244<932.337 1165.67> 857 244<255.885 508.481>
LayerCount: 2
Fore
SplineSet
378 1049 m 0xd8
 378 1171 472 1235 601 1235 c 0
 723 1235 825 1167 825 1058 c 0
 825 940 739 868 602 832 c 1
 463 865 378 938 378 1049 c 0xd8
352 386 m 0xe4
 352 518 460 599 608 630 c 1
 746 597 857 506 857 389 c 0
 857 242 754 176 603 176 c 0
 450 176 352 250 352 386 c 0xe4
100 376 m 0
 100 121 350 -23 617 -23 c 0
 863 -23 1101 116 1101 369 c 0xe4
 1101 525 1008 666 861 731 c 1
 998 792 1069 897 1069 1050 c 0
 1069 1285 868 1426 592 1426 c 0
 324 1426 133 1291 133 1058 c 0xd8
 133 907 209 802 345 734 c 1
 182 664 100 536 100 376 c 0
EndSplineSet
EndChar

StartChar: ellipsis
Encoding: 8230 8230 147
Width: 1620
VWidth: 0
Flags: W
PickledData: "(dp1
S'org.robofab.postScriptHintData'
p2
(dp3
s."
HStem: -11 262
LayerCount: 2
Fore
SplineSet
1456 251 m 1
 1169 251 l 1
 1169 -11 l 1
 1456 -11 l 1
 1456 251 l 1
934 251 m 1
 645 251 l 1
 645 -11 l 1
 935 -11 l 1
 934 251 l 1
410 251 m 1
 121 251 l 1
 121 -11 l 1
 411 -11 l 1
 410 251 l 1
EndSplineSet
EndChar

StartChar: emdash
Encoding: 8212 8212 149
Width: 2171
VWidth: 0
Flags: W
PickledData: "(dp1
S'org.robofab.postScriptHintData'
p2
(dp3
s."
HStem: 458 195
LayerCount: 2
Fore
SplineSet
2099 653 m 1
 -12 653 l 1
 -12 458 l 1
 2099 458 l 1
 2099 653 l 1
EndSplineSet
EndChar

StartChar: endash
Encoding: 8211 8211 150
Width: 1085
VWidth: 0
Flags: W
PickledData: "(dp1
S'org.robofab.postScriptHintData'
p2
(dp3
s."
HStem: 458 195
LayerCount: 2
Fore
SplineSet
1073 653 m 1
 -30 653 l 1
 -30 458 l 1
 1073 458 l 1
 1073 653 l 1
EndSplineSet
EndChar

StartChar: equal
Encoding: 61 61 152
Width: 1458
VWidth: 0
Flags: W
PickledData: "(dp1
S'org.robofab.postScriptHintData'
p2
(dp3
s."
LayerCount: 2
Fore
SplineSet
166 838 m 1
 166 646 l 1
 1231 646 l 1
 1231 838 l 1
 166 838 l 1
166 458 m 1
 166 267 l 1
 1233 267 l 1
 1233 458 l 1
 166 458 l 1
EndSplineSet
EndChar

StartChar: eth
Encoding: 240 240 153
Width: 1218
VWidth: 0
Flags: W
PickledData: "(dp1
S'org.robofab.postScriptHintData'
p2
(dp3
s."
HStem: -24 192<455.24 739.868> 706 198<444.327 734.618> 1321 135<416.717 487.077>
VStem: 100 243<286.945 607.682> 851 251<301.708 691.5>
LayerCount: 2
Fore
SplineSet
851 450 m 0
 851 265 725 168 601 168 c 0
 471 168 343 260 343 451 c 0
 343 628 462 706 588 706 c 0
 716 706 851 611 851 450 c 0
1103 1182 m 1
 1075 1315 l 1
 829 1265 l 1
 710 1375 574 1438 425 1456 c 1
 347 1321 l 1
 429 1305 536 1262 596 1216 c 1
 410 1177 l 1
 438 1044 l 1
 710 1102 l 1
 798 1032 883 821 883 749 c 1
 789 859 670 904 547 904 c 0
 269 904 100 731 100 468 c 0
 100 204 286 -24 585 -24 c 0
 909 -24 1102 170 1102 623 c 0
 1102 760 1041 1001 922 1148 c 1
 1103 1182 l 1
EndSplineSet
EndChar

StartChar: exclam
Encoding: 33 33 154
Width: 737
VWidth: 0
Flags: W
PickledData: "(dp1
S'org.robofab.postScriptHintData'
p2
(dp3
s."
VStem: 287 140<353 572.341>
LayerCount: 2
Fore
SplineSet
496 262 m 1
 217 262 l 1
 217 0 l 1
 496 0 l 1
 496 262 l 1
497 1424 m 1
 217 1424 l 1
 287 353 l 1
 427 353 l 1
 497 1424 l 1
EndSplineSet
EndChar

StartChar: f
Encoding: 102 102 156
Width: 812
VWidth: 0
Flags: W
PickledData: "(dp1
S'org.robofab.postScriptHintData'
p2
(dp3
s."
HStem: 1301 183<541.316 730>
VStem: 261 235<1026 1265.5>
LayerCount: 2
Fore
SplineSet
496 868 m 1
 730 868 l 1
 730 1026 l 1
 496 1026 l 1
 496 1298 531 1301 730 1301 c 2
 738 1301 l 1
 738 1484 l 1
 686 1484 l 2
 336 1484 261 1359 261 1073 c 2
 261 1026 l 1
 72 1026 l 1
 72 868 l 1
 261 868 l 1
 261 0 l 1
 496 0 l 1
 496 868 l 1
EndSplineSet
EndChar

StartChar: fi
Encoding: 64257 64257 157
Width: 1198
VWidth: 0
Flags: W
PickledData: "(dp1
S'org.robofab.postScriptHintData'
p2
(dp3
s."
HStem: 1301 183<541.316 730>
VStem: 261 235<1026 1265.5>
LayerCount: 2
Fore
SplineSet
821 1483 m 1
 821 1274 l 1
 1043 1274 l 1
 1043 1483 l 1
 821 1483 l 1
496 868 m 1
 808 868 l 1
 808 0 l 1
 1043 0 l 1
 1043 1026 l 1
 496 1026 l 1
 496 1298 531 1301 730 1301 c 2
 738 1301 l 1
 738 1484 l 1
 686 1484 l 2
 336 1484 261 1359 261 1073 c 2
 261 1026 l 1
 72 1026 l 1
 72 868 l 1
 261 868 l 1
 261 0 l 1
 496 0 l 1
 496 868 l 1
EndSplineSet
EndChar

StartChar: five
Encoding: 53 53 158
Width: 1208
VWidth: 0
Flags: W
PickledData: "(dp1
S'org.robofab.postScriptHintData'
p2
(dp3
s."
HStem: -22 197<384.995 719.581> 713 206<474.693 750.221>
VStem: 839 249<292.374 618.706>
LayerCount: 2
Fore
SplineSet
111 163 m 1
 236 38 406 -22 569 -22 c 0
 838 -22 1088 141 1088 452 c 0
 1088 719 904 919 676 919 c 0
 574 919 475 898 417 828 c 1
 429 1199 l 1
 1018 1199 l 1
 1018 1398 l 1
 214 1398 l 1
 214 672 l 1
 453 645 l 1
 489 695 561 713 632 713 c 0
 764 713 839 591 839 455 c 0
 839 273 714 175 564 175 c 0
 455 175 332 227 236 337 c 1
 111 163 l 1
EndSplineSet
EndChar

StartChar: fl
Encoding: 64258 64258 159
Width: 1217
VWidth: 0
Flags: W
PickledData: "(dp1
S'org.robofab.postScriptHintData'
p2
(dp3
s."
HStem: 1301 183<541.316 730>
VStem: 261 235<1026 1265.5>
LayerCount: 2
Fore
SplineSet
496 868 m 1
 730 868 l 1
 730 1026 l 1
 496 1026 l 1
 496 1298 531 1301 730 1301 c 2
 828 1301 l 1
 828 0 l 1
 1062 0 l 1
 1062 1483 l 1
 686 1484 l 2
 336 1485 261 1358 261 1073 c 2
 261 1026 l 1
 72 1026 l 1
 72 868 l 1
 261 868 l 1
 261 0 l 1
 496 0 l 1
 496 868 l 1
EndSplineSet
EndChar

StartChar: florin
Encoding: 402 402 160
Width: 1634
VWidth: 0
Flags: W
PickledData: "(dp1
S'org.robofab.postScriptHintData'
p2
(dp3
s."
HStem: -294 207<336 422.654> 1135 203<941.833 1162.51>
LayerCount: 2
Fore
SplineSet
511 32 m 1
 493 -24 453 -110 423 -117 c 1
 416 -115 385 -104 336 -87 c 1
 332 -294 l 1
 383 -309 436 -312 442 -312 c 0
 718 -312 760 -55 798 187 c 1
 805 235 l 1
 821 334 836 442 851 542 c 2
 870 674 l 1
 1043 674 l 1
 1043 871 l 1
 903 871 l 1
 935 1075 l 1
 939 1112 965 1135 1025 1135 c 0
 1038 1135 1089 1126 1168 1094 c 1
 1164 1315 l 1
 1094 1330 1009 1338 981 1338 c 0
 716 1338 666 1138 662 993 c 1
 658 954 655 910 651 871 c 1
 520 871 l 1
 520 674 l 1
 623 674 l 1
 584 465 581 410 579 364 c 0
 577 318 575 289 511 32 c 1
EndSplineSet
EndChar

StartChar: four
Encoding: 52 52 161
Width: 1189
VWidth: 0
Flags: W
PickledData: "(dp1
S'org.robofab.postScriptHintData'
p2
(dp3
s."
LayerCount: 2
Fore
SplineSet
289 516 m 1
 425 700 546 879 682 1062 c 1
 682 516 l 1
 289 516 l 1
927 0 m 1
 927 330 l 1
 1124 330 l 1
 1124 516 l 1
 923 516 l 1
 923 1393 l 1
 662 1393 l 1
 35 484 l 1
 35 330 l 1
 679 330 l 1
 679 0 l 1
 927 0 l 1
EndSplineSet
EndChar

StartChar: foursuperior
Encoding: 8308 8308 162
Width: 897
VWidth: 0
Flags: W
PickledData: "(dp1
S'org.robofab.postScriptHintData'
p2
(dp3
s."
VStem: -49 658
LayerCount: 2
Fore
SplineSet
158 898 m 1
 246 1034 278 1085 303 1127 c 1
 303 898 l 1
 158 898 l 1
493 575 m 1
 493 750 l 1
 609 750 l 1
 609 898 l 1
 494 898 l 1
 494 1385 l 1
 310 1385 l 1
 -49 878 l 1
 -49 750 l 1
 305 750 l 1
 305 575 l 1
 493 575 l 1
EndSplineSet
EndChar

StartChar: fraction
Encoding: 8260 8260 163
Width: 368
VWidth: 0
Flags: W
PickledData: "(dp1
S'org.robofab.postScriptHintData'
p2
(dp3
s."
LayerCount: 2
Fore
SplineSet
510 1409 m 1
 -378 0 l 1
 -143 0 l 1
 744 1409 l 1
 510 1409 l 1
EndSplineSet
EndChar

StartChar: g
Encoding: 103 103 164
Width: 1244
VWidth: 0
Flags: W
PickledData: "(dp1
S'org.robofab.postScriptHintData'
p2
(dp3
s."
HStem: -395 194<357.243 756.956> 0 179<451.082 763.877> 861 191<473.692 750.932>
VStem: 100 247<298.381 718.955> 874 249<439.734 739.263 880 1026> 874 231<-88.6774 106 297.994 739.263 880 1025.89>
LayerCount: 2
Fore
SplineSet
884 520 m 0xf0
 884 350 815 179 611 179 c 0
 414 179 347 312 347 514 c 0
 347 700 431 861 614 861 c 0
 791 861 884 714 884 520 c 0xf0
592 1052 m 0
 263 1052 100 801 100 513 c 0
 100 205 280 0 584 0 c 0
 683 0 803 45 873 106 c 1
 873 66 l 2
 873 -118 752 -201 561 -201 c 0
 463 -201 338 -163 214 -82 c 1
 182 -302 l 1
 307 -366 440 -395 576 -395 c 0
 1018 -395 1105 -91 1105 168 c 2
 1105 695 l 2xf4
 1105 872 1123 1026 1123 1026 c 1
 874 1026 l 1
 874 880 l 1xf8
 833 976 711 1052 592 1052 c 0
EndSplineSet
EndChar

StartChar: germandbls
Encoding: 223 223 166
Width: 1307
VWidth: 0
Flags: W
PickledData: "(dp1
S'org.robofab.postScriptHintData'
p2
(dp3
s."
HStem: -23 191<689.932 908.741> 1295 188<523.642 753.537>
VStem: 192 232<1005 1180.26> 798 260<1020.55 1252.96> 952 260<211.066 466.328>
LayerCount: 2
Fore
SplineSet
424 1005 m 0xf0
 424 1143 499 1295 637 1295 c 0
 731 1295 798 1240 798 1149 c 0xf0
 798 1036 695 937 578 887 c 1
 564 727 l 1
 771 609 952 494 952 334 c 0
 952 228 887 168 808 168 c 0
 747 168 659 217 564 327 c 1
 463 160 l 1
 563 34 696 -23 814 -23 c 0
 1017 -23 1212 121 1212 352 c 0xe8
 1212 614 963 766 734 819 c 1
 916 871 1058 1011 1058 1165 c 0
 1058 1341 892 1483 636 1483 c 0
 357 1483 195 1300 192 1035 c 1
 195 0 l 1
 432 0 l 1
 432 479 424 519 424 1005 c 0xf0
EndSplineSet
EndChar

StartChar: grave
Encoding: 96 96 167
Width: 607
VWidth: 0
Flags: W
PickledData: "(dp1
S'org.robofab.postScriptHintData'
p2
(dp3
s."
HStem: 1148 315
LayerCount: 2
Fore
SplineSet
300 1463 m 1
 -3 1463 l 1
 345 1148 l 1
 559 1148 l 1
 300 1463 l 1
EndSplineSet
EndChar

StartChar: greater
Encoding: 62 62 168
Width: 1458
VWidth: 0
Flags: W
PickledData: "(dp1
S'org.robofab.postScriptHintData'
p2
(dp3
s."
LayerCount: 2
Fore
SplineSet
181 251 m 1
 181 30 l 1
 1214 486 l 1
 1214 605 l 1
 186 1099 l 1
 186 883 l 1
 456 756 l 2
 599 689 737 625 877 557 c 1
 181 251 l 1
EndSplineSet
EndChar

StartChar: greaterequal
Encoding: 8805 8805 169
Width: 1351
VWidth: 0
Flags: W
PickledData: "(dp1
S'org.robofab.postScriptHintData'
p2
(dp3
s."
LayerCount: 2
Fore
SplineSet
163 9 m 1
 1143 9 l 1
 1160 185 l 1
 163 185 l 1
 163 9 l 1
176 255 m 1
 1164 639 l 1
 1164 747 l 1
 199 1168 l 1
 182 967 l 1
 899 697 l 1
 193 464 l 1
 176 255 l 1
EndSplineSet
EndChar

StartChar: guillemotleft
Encoding: 171 171 170
Width: 1156
VWidth: 0
Flags: W
PickledData: "(dp1
S'org.robofab.postScriptHintData'
p2
(dp3
s."
LayerCount: 2
Fore
SplineSet
105 541 m 1
 381 160 l 1
 623 160 l 1
 359 540 l 1
 634 921 l 1
 387 921 l 1
 105 541 l 1
525 541 m 1
 801 160 l 1
 1042 160 l 1
 780 540 l 1
 1050 921 l 1
 807 921 l 1
 525 541 l 1
EndSplineSet
EndChar

StartChar: guillemotright
Encoding: 187 187 171
Width: 1156
VWidth: 0
Flags: W
PickledData: "(dp1
S'org.robofab.postScriptHintData'
p2
(dp3
s."
LayerCount: 2
Fore
SplineSet
657 542 m 1
 379 921 l 1
 137 921 l 1
 400 542 l 1
 129 160 l 1
 375 160 l 1
 657 542 l 1
1026 542 m 1
 749 921 l 1
 513 921 l 1
 770 544 l 1
 504 160 l 1
 744 160 l 1
 1026 542 l 1
EndSplineSet
EndChar

StartChar: guilsinglleft
Encoding: 8249 8249 172
Width: 642
VWidth: 0
Flags: W
PickledData: "(dp1
S'org.robofab.postScriptHintData'
p2
(dp3
s."
LayerCount: 2
Fore
SplineSet
59 541 m 1
 335 160 l 1
 576 160 l 1
 314 540 l 1
 583 921 l 1
 339 921 l 1
 59 541 l 1
EndSplineSet
EndChar

StartChar: guilsinglright
Encoding: 8250 8250 173
Width: 642
VWidth: 0
Flags: W
PickledData: "(dp1
S'org.robofab.postScriptHintData'
p2
(dp3
s."
LayerCount: 2
Fore
SplineSet
582 542 m 1
 304 921 l 1
 70 921 l 1
 326 544 l 1
 59 160 l 1
 299 160 l 1
 582 542 l 1
EndSplineSet
EndChar

StartChar: h
Encoding: 104 104 174
Width: 1157
VWidth: 0
Flags: W
PickledData: "(dp1
S'org.robofab.postScriptHintData'
p2
(dp3
s."
HStem: 861 191<489.99 746.489>
VStem: 128 236<619 747.377> 802 237<580 796.468>
LayerCount: 2
Fore
SplineSet
128 1463 m 1
 128 0 l 1
 364 0 l 1
 364 619 l 2
 364 748 489 861 629 861 c 0
 753 861 802 785 802 586 c 2
 802 0 l 1
 1039 0 l 1
 1039 580 l 2
 1039 777 988 1052 660 1052 c 0
 549 1052 419 990 364 888 c 1
 364 1463 l 1
 128 1463 l 1
EndSplineSet
EndChar

StartChar: hungarumlaut
Encoding: 733 733 176
Width: 969
VWidth: 0
Flags: W
PickledData: "(dp1
S'org.robofab.postScriptHintData'
p2
(dp3
s."
HStem: 1105 358
LayerCount: 2
Fore
SplineSet
298 1105 m 1
 596 1463 l 1
 328 1463 l 1
 128 1105 l 1
 298 1105 l 1
622 1105 m 1
 966 1463 l 1
 682 1463 l 1
 445 1105 l 1
 622 1105 l 1
EndSplineSet
EndChar

StartChar: hyphen
Encoding: 45 45 177
Width: 728
VWidth: 0
Flags: W
PickledData: "(dp1
S'org.robofab.postScriptHintData'
p2
(dp3
s."
HStem: 458 195
VStem: 44 617
LayerCount: 2
Fore
SplineSet
661 458 m 1
 661 653 l 1
 44 653 l 1
 44 458 l 1
 661 458 l 1
EndSplineSet
EndChar

StartChar: i
Encoding: 105 105 178
Width: 543
VWidth: 0
Flags: W
PickledData: "(dp1
S'org.robofab.postScriptHintData'
p2
(dp3
s."
VStem: 159 229
LayerCount: 2
Fore
SplineSet
159 0 m 5
 388 0 l 5
 388 1026 l 5
 159 1026 l 5
 159 0 l 5
159 1435 m 5
 159 1226 l 5
 388 1226 l 5
 388 1435 l 5
 159 1435 l 5
EndSplineSet
EndChar

StartChar: integral
Encoding: 8747 8747 185
Width: 702
VWidth: 0
Flags: W
PickledData: "(dp1
S'org.robofab.postScriptHintData'
p2
(dp3
s."
HStem: -411 189<231.559 453.016> 1509 190<734.597 963.777>
VStem: 477 238<-198.548 -29 1316 1485.74>
LayerCount: 2
Fore
SplineSet
477 -49 m 2
 477 -161 461 -222 369 -222 c 0
 340 -222 279 -217 225 -194 c 1
 230 -385 l 1
 295 -400 345 -411 397 -411 c 0
 628 -411 715 -249 715 -29 c 2
 714 1337 l 2
 714 1449 730 1509 826 1509 c 0
 853 1509 910 1505 969 1478 c 1
 965 1674 l 1
 906 1686 l 2
 869 1693 838 1699 796 1699 c 0
 567 1699 476 1536 476 1316 c 2
 477 -49 l 2
EndSplineSet
EndChar

StartChar: j
Encoding: 106 106 188
Width: 563
VWidth: 0
Flags: W
PickledData: "(dp1
S'org.robofab.postScriptHintData'
p2
(dp3
s."
HStem: -402 200<-85.9241 113.763>
VStem: 173 235<-140.008 96>
LayerCount: 2
Fore
SplineSet
173 1435 m 5
 173 1226 l 5
 408 1226 l 5
 408 1435 l 5
 173 1435 l 5
-89 -383 m 5
 -23 -396 28 -402 70 -402 c 4
 368 -402 408 -129 408 96 c 6
 408 1026 l 5
 173 1026 l 5
 173 62 l 6
 173 -119 114 -202 28 -202 c 4
 9 -202 -23 -198 -89 -183 c 5
 -89 -383 l 5
EndSplineSet
EndChar

StartChar: k
Encoding: 107 107 190
Width: 1095
VWidth: 0
Flags: W
PickledData: "(dp1
S'org.robofab.postScriptHintData'
p2
(dp3
s."
LayerCount: 2
Fore
SplineSet
1059 1026 m 1
 734 1026 l 1
 365 646 l 1
 365 1463 l 1
 130 1463 l 1
 130 0 l 1
 365 0 l 1
 365 424 l 1
 779 0 l 1
 1092 0 l 1
 543 539 l 1
 1059 1026 l 1
EndSplineSet
EndChar

StartChar: kgreenlandic
Encoding: 312 312 192
Width: 1082
VWidth: 0
Flags: W
PickledData: "(dp1
S'org.robofab.postScriptHintData'
p2
(dp3
s."
LayerCount: 2
Fore
SplineSet
1077 1026 m 1
 756 1026 l 1
 385 618 l 1
 385 1026 l 1
 150 1026 l 1
 150 0 l 1
 385 0 l 1
 385 399 l 1
 799 0 l 1
 1112 0 l 1
 938 158 862 229 816 274 c 0
 804 285 794 294 781 307 c 0
 740 346 687 395 563 509 c 1
 1077 1026 l 1
EndSplineSet
EndChar

StartChar: l
Encoding: 108 108 193
Width: 538
VWidth: 0
Flags: W
PickledData: "(dp1
S'org.robofab.postScriptHintData'
p2
(dp3
s."
VStem: 149 234
LayerCount: 2
Fore
SplineSet
149 1463 m 1
 149 0 l 1
 383 0 l 1
 383 1463 l 1
 149 1463 l 1
EndSplineSet
EndChar

StartChar: less
Encoding: 60 60 195
Width: 1458
VWidth: 0
Flags: W
PickledData: "(dp1
S'org.robofab.postScriptHintData'
p2
(dp3
s."
LayerCount: 2
Fore
SplineSet
1215 871 m 1
 1215 1088 l 1
 184 606 l 1
 184 495 l 1
 1211 23 l 1
 1211 236 l 1
 1102 284 959 350 849 398 c 1
 510 550 l 1
 1215 871 l 1
EndSplineSet
EndChar

StartChar: lessequal
Encoding: 8804 8804 196
Width: 1351
VWidth: 0
Flags: W
PickledData: "(dp1
S'org.robofab.postScriptHintData'
p2
(dp3
s."
LayerCount: 2
Fore
SplineSet
1134 464 m 1
 428 697 l 1
 1145 967 l 1
 1128 1168 l 1
 163 747 l 1
 163 639 l 1
 1151 255 l 1
 1134 464 l 1
1164 185 m 1
 167 185 l 1
 184 9 l 1
 1164 9 l 1
 1164 185 l 1
EndSplineSet
EndChar

StartChar: logicalnot
Encoding: 172 172 197
Width: 1458
VWidth: 0
Flags: W
PickledData: "(dp1
S'org.robofab.postScriptHintData'
p2
(dp3
s."
HStem: 223 589
LayerCount: 2
Fore
SplineSet
1232 223 m 1
 1232 812 l 1
 169 812 l 1
 169 616 l 1
 1011 616 l 1
 1011 223 l 1
 1232 223 l 1
EndSplineSet
EndChar

StartChar: lozenge
Encoding: 9674 9674 198
Width: 1248
VWidth: 0
Flags: W
PickledData: "(dp1
S'org.robofab.postScriptHintData'
p2
(dp3
s."
LayerCount: 2
Fore
SplineSet
603 1179 m 1
 891 700 l 1
 596 208 l 1
 308 700 l 1
 603 1179 l 1
679 1442 m 1
 524 1442 l 1
 77 700 l 1
 518 -40 l 1
 672 -40 l 1
 1123 701 l 1
 679 1442 l 1
EndSplineSet
EndChar

StartChar: lslash
Encoding: 322 322 199
Width: 503
VWidth: 0
Flags: W
PickledData: "(dp1
S'org.robofab.postScriptHintData'
p2
(dp3
s."
VStem: 6 467
LayerCount: 2
Fore
SplineSet
124 1463 m 1
 124 928 l 1
 6 828 l 1
 6 621 l 1
 125 721 l 1
 125 0 l 1
 362 0 l 1
 362 887 l 1
 473 987 l 1
 473 1197 l 1
 361 1100 l 1
 361 1463 l 1
 124 1463 l 1
EndSplineSet
EndChar

StartChar: m
Encoding: 109 109 200
Width: 1808
VWidth: 0
Flags: W
PickledData: "(dp1
S'org.robofab.postScriptHintData'
p2
(dp3
s."
HStem: 861 191<505.412 747.302 1146.65 1388.72>
VStem: 126 248<440.625 741.37 880 1026> 143 236<620 746.312 880 1022.61> 799 236<582 741.336> 1452 236<553 793.329>
LayerCount: 2
Fore
SplineSet
126 1026 m 1xd8
 129 954 143 868 143 705 c 2
 143 0 l 1
 379 0 l 1
 379 620 l 2xb8
 379 745 500 861 639 861 c 0
 776 861 799 729 799 628 c 2
 799 0 l 1
 1035 0 l 1
 1035 582 l 2
 1035 719 1128 861 1285 861 c 0
 1450 861 1452 669 1452 553 c 2
 1452 0 l 1
 1688 0 l 1
 1688 629 l 2
 1688 885 1569 1052 1317 1052 c 0
 1161 1052 1045 963 964 861 c 1
 901 984 802 1052 673 1052 c 0
 546 1052 424 977 374 880 c 1
 374 1026 l 1
 126 1026 l 1xd8
EndSplineSet
EndChar

StartChar: macron
Encoding: 65540 -1 201
Width: 728
VWidth: 0
Flags: W
PickledData: "(dp1
S'org.robofab.postScriptHintData'
p2
(dp3
s."
HStem: 1196 171
VStem: 44 617
LayerCount: 2
Fore
SplineSet
661 1196 m 1
 661 1367 l 1
 44 1367 l 1
 44 1196 l 1
 661 1196 l 1
EndSplineSet
EndChar

StartChar: middot
Encoding: 183 183 202
Width: 444
VWidth: 0
Flags: W
PickledData: "(dp1
S'org.robofab.postScriptHintData'
p2
(dp3
s."
HStem: 547 262
VStem: 79 279
LayerCount: 2
Fore
SplineSet
358 809 m 1
 79 809 l 1
 79 547 l 1
 358 547 l 1
 358 809 l 1
EndSplineSet
EndChar

StartChar: minus
Encoding: 8722 8722 203
Width: 1458
VWidth: 0
Flags: W
PickledData: "(dp1
S'org.robofab.postScriptHintData'
p2
(dp3
s."
HStem: 315 192
LayerCount: 2
Fore
SplineSet
1230 507 m 1
 165 507 l 1
 165 315 l 1
 1230 315 l 1
 1230 507 l 1
EndSplineSet
EndChar

StartChar: mu
Encoding: 956 956 204
Width: 1217
VWidth: 0
Flags: W
PickledData: "(dp1
S'org.robofab.postScriptHintData'
p2
(dp3
s."
HStem: -23 190<431.014 692.657>
VStem: 128 240<234.772 444> 799 238<0 52 280.021 1026>
LayerCount: 2
Fore
SplineSet
799 452 m 2
 799 304 712 167 560 167 c 0
 416 167 363 267 363 444 c 1
 359 1026 l 1
 128 1026 l 1
 128 -227 l 1
 368 -227 l 1
 368 -109 l 2
 368 -75 367 -39 367 -6 c 1
 412 -16 467 -23 527 -23 c 0
 632 -23 726 6 802 52 c 1
 806 0 l 1
 1051 0 l 1
 1041 92 1037 166 1037 262 c 2
 1036 1026 l 1
 799 1026 l 1
 799 452 l 2
EndSplineSet
EndChar

StartChar: mu1
Encoding: 181 181 205
Width: 1182
VWidth: 0
Flags: W
PickledData: "(dp1
S'org.robofab.postScriptHintData'
p2
(dp3
s."
HStem: -23 151<431.683 724.097>
VStem: 163 169<231.255 392> 843 171<256.857 438>
LayerCount: 2
Fore
SplineSet
883 0 m 1
 1050 0 l 1
 1021 67 1014 156 1014 267 c 2
 1014 1026 l 1
 843 1026 l 1
 843 438 l 2
 843 249 735 128 577 128 c 0
 434 128 332 228 332 392 c 2
 332 396 l 2
 332 397 333 398 333 399 c 2
 334 1026 l 1
 163 1026 l 1
 163 -395 l 1
 332 -395 l 1
 344 76 l 1
 395 14 470 -23 569 -23 c 0
 696 -23 784 29 843 132 c 1
 849 76 861 32 874 5 c 1
 883 0 l 1
EndSplineSet
EndChar

StartChar: multiply
Encoding: 215 215 206
Width: 1458
VWidth: 0
Flags: W
PickledData: "(dp1
S'org.robofab.postScriptHintData'
p2
(dp3
s."
LayerCount: 2
Fore
SplineSet
704 710 m 1
 474 1005 l 1
 318 856 l 1
 553 552 l 1
 277 249 l 1
 423 98 l 1
 495 177 580 270 653 349 c 1
 665 360 681 379 693 392 c 1
 921 96 l 1
 1084 251 l 1
 1006 349 921 455 842 552 c 1
 1117 854 l 1
 972 1003 l 1
 704 710 l 1
EndSplineSet
EndChar

StartChar: n
Encoding: 110 110 207
Width: 1171
VWidth: 0
Flags: W
PickledData: "(dp1
S'org.robofab.postScriptHintData'
p2
(dp3
s."
HStem: 861 191<510.181 758.709>
VStem: 128 249<440.75 739.705 879 1026> 146 236<620 749.808 879 1025.9> 817 236<559 800.479>
LayerCount: 2
Fore
SplineSet
382 620 m 2xb0
 382 764 529 861 636 861 c 0
 778 861 817 777 817 559 c 2
 817 0 l 1
 1053 0 l 1
 1053 570 l 2
 1053 888 918 1052 681 1052 c 0
 574 1052 438 995 377 879 c 1
 377 1026 l 1
 128 1026 l 1xd0
 128 1026 146 883 146 656 c 2
 146 0 l 1
 382 0 l 1
 382 620 l 2xb0
EndSplineSet
EndChar

StartChar: nine
Encoding: 57 57 210
Width: 1210
VWidth: 0
Flags: W
PickledData: "(dp1
S'org.robofab.postScriptHintData'
p2
(dp3
s."
HStem: -23 208<346.525 668.543> 500 194<423.037 737.248> 1231 195<441.79 739.928>
VStem: 80 248<792.656 1119.77> 848 256<577.335 1064.69>
LayerCount: 2
Fore
SplineSet
575 694 m 0
 407 694 328 809 328 959 c 0
 328 1117 430 1231 591 1231 c 0
 755 1231 848 1108 848 973 c 0
 848 788 732 694 575 694 c 0
152 118 m 1
 246 28 378 -23 523 -23 c 0
 895 -23 1104 289 1104 741 c 0
 1104 1181 913 1426 583 1426 c 0
 273 1426 80 1222 80 955 c 0
 80 686 262 500 550 500 c 0
 666 500 784 525 854 629 c 1
 828 367 717 185 523 185 c 0
 429 185 331 222 240 298 c 1
 152 118 l 1
EndSplineSet
EndChar

StartChar: notequal
Encoding: 8800 8800 211
Width: 1351
VWidth: 0
Flags: W
PickledData: "(dp1
S'org.robofab.postScriptHintData'
p2
(dp3
s."
LayerCount: 2
Fore
SplineSet
484 482 m 1
 105 482 l 1
 141 304 l 1
 393 304 l 1
 280 66 l 1
 476 37 l 1
 608 304 l 1
 1194 304 l 1
 1158 482 l 1
 696 482 l 1
 803 681 l 1
 1194 681 l 1
 1158 860 l 1
 888 860 l 1
 1004 1094 l 1
 802 1122 l 1
 674 860 l 1
 105 860 l 1
 143 681 l 1
 588 681 l 1
 484 482 l 1
EndSplineSet
EndChar

StartChar: numbersign
Encoding: 35 35 213
Width: 1242
VWidth: 0
Flags: W
PickledData: "(dp1
S'org.robofab.postScriptHintData'
p2
(dp3
s."
LayerCount: 2
Fore
SplineSet
658 638 m 1
 499 638 l 1
 536 832 l 1
 694 832 l 1
 658 638 l 1
30 638 m 1
 12 454 l 1
 245 454 l 1
 165 55 l 1
 392 55 l 1
 466 454 l 1
 624 454 l 1
 551 55 l 1
 773 55 l 1
 851 454 l 1
 1096 454 l 1
 1112 638 l 1
 880 638 l 1
 916 832 l 1
 1152 832 l 1
 1172 1010 l 1
 952 1010 l 1
 1026 1393 l 1
 798 1393 l 1
 730 1010 l 1
 572 1010 l 1
 644 1393 l 1
 419 1393 l 1
 344 1010 l 1
 93 1010 l 1
 73 832 l 1
 316 832 l 1
 278 638 l 1
 30 638 l 1
EndSplineSet
EndChar

StartChar: o
Encoding: 111 111 214
Width: 1268
VWidth: 0
Flags: W
PickledData: "(dp1
S'org.robofab.postScriptHintData'
p2
(dp3
s."
HStem: -23 191<482.239 789.098> 861 191<483.902 789.771>
VStem: 100 246<313.956 711.993> 922 246<308.143 718.049>
LayerCount: 2
Fore
SplineSet
635 168 m 0
 431 168 346 328 346 515 c 0
 346 707 437 861 635 861 c 0
 833 861 922 707 922 515 c 0
 922 328 839 168 635 168 c 0
638 1052 m 0
 293 1052 100 805 100 513 c 0
 100 222 291 -23 638 -23 c 0
 978 -23 1168 225 1168 511 c 0
 1168 807 990 1052 638 1052 c 0
EndSplineSet
EndChar

StartChar: oe
Encoding: 339 339 218
Width: 1998
VWidth: 0
Flags: W
PickledData: "(dp1
S'org.robofab.postScriptHintData'
p2
(dp3
s."
HStem: -32 199<483.451 778.381 1253.03 1533.65> 861 194<485.91 778.617 1261.23 1515.54>
VStem: 100 246<312.556 708.362> 1606 253<636 754.08>
LayerCount: 2
Fore
SplineSet
900 511 m 0
 900 328 820 167 639 167 c 0
 437 167 346 322 346 508 c 0
 346 696 446 861 632 861 c 0
 823 861 900 709 900 511 c 0
1146 636 m 1
 1172 753 1261 861 1394 861 c 0
 1520 861 1589 769 1606 638 c 1
 1606 636 l 1
 1595 636 l 1
 1146 636 l 1
1859 441 m 1
 1859 504 l 2
 1859 834 1676 1055 1382 1055 c 0
 1193 1055 1094 1002 1015 881 c 1
 942 989 822 1055 638 1055 c 0
 296 1055 100 804 100 511 c 0
 100 215 299 -32 631 -32 c 0
 790 -32 948 26 1015 136 c 1
 1089 30 1220 -32 1382 -32 c 0
 1563 -32 1733 53 1825 231 c 1
 1686 367 l 1
 1610 243 1502 167 1387 167 c 0
 1247 167 1160 273 1144 436 c 1
 1859 441 l 1
EndSplineSet
EndChar

StartChar: ogonek
Encoding: 731 731 219
Width: 508
VWidth: 0
Flags: W
PickledData: "(dp1
S'org.robofab.postScriptHintData'
p2
(dp3
s."
HStem: -394 144<168.438 469.38>
VStem: 15 214<-303.5 -136.579>
LayerCount: 2
Fore
SplineSet
384 0 m 1
 255 0 l 1
 176 -40 15 -114 15 -255 c 0
 15 -352 107 -394 233 -394 c 0
 305 -394 389 -380 472 -355 c 1
 472 -216 l 1
 444 -224 366 -250 306 -250 c 0
 263 -250 229 -237 229 -195 c 0
 229 -140 290 -55 384 0 c 1
EndSplineSet
EndChar

StartChar: one
Encoding: 49 49 221
Width: 1015
VWidth: 0
Flags: W
PickledData: "(dp1
S'org.robofab.postScriptHintData'
p2
(dp3
s."
LayerCount: 2
Fore
SplineSet
181 1023 m 1
 293 1067 371 1101 442 1136 c 1
 442 192 l 1
 239 192 l 1
 239 0 l 1
 893 0 l 1
 893 189 l 1
 692 189 l 1
 692 1422 l 1
 473 1384 l 1
 384 1334 286 1282 180 1242 c 1
 181 1023 l 1
EndSplineSet
EndChar

StartChar: onesuperior
Encoding: 185 185 224
Width: 1190
VWidth: 0
Flags: W
PickledData: "(dp1
S'org.robofab.postScriptHintData'
p2
(dp3
s."
LayerCount: 2
Fore
SplineSet
200 1107 m 1
 243 1122 305 1145 343 1162 c 1
 343 742 l 1
 230 742 l 1
 230 564 l 1
 645 564 l 1
 645 740 l 1
 530 740 l 1
 530 1406 l 1
 381 1385 l 1
 340 1362 288 1335 200 1306 c 1
 200 1107 l 1
EndSplineSet
EndChar

StartChar: ordfeminine
Encoding: 170 170 225
Width: 745
VWidth: 0
Flags: W
PickledData: "(dp1
S'org.robofab.postScriptHintData'
p2
(dp3
s."
HStem: 716 122<223.643 403.845> 1295 153<139.792 467.769>
VStem: 29 192<843.326 982.693> 491 184<820.451 892 924.67 1031 1149 1272.5>
LayerCount: 2
Fore
SplineSet
297 838 m 0
 237 838 221 865 221 907 c 0
 221 1014 375 1024 489 1031 c 1
 483 928 377 838 297 838 c 0
147 1244 m 1
 217 1271 297 1295 361 1295 c 0
 436 1295 491 1263 491 1169 c 0
 491 1163 490 1156 490 1149 c 1
 176 1142 29 1061 29 909 c 0
 29 772 134 716 258 716 c 0
 382 716 455 769 501 892 c 1
 516 747 l 1
 686 747 l 1
 681 793 675 818 675 1178 c 0
 675 1388 538 1448 380 1448 c 0
 262 1448 157 1430 83 1386 c 1
 147 1244 l 1
EndSplineSet
EndChar

StartChar: ordmasculine
Encoding: 186 186 226
Width: 824
VWidth: 0
Flags: W
PickledData: "(dp1
S'org.robofab.postScriptHintData'
p2
(dp3
s."
HStem: 720 164<291.339 508.314> 1283 164<293.728 507.176>
VStem: 19 216<940.046 1221.54> 564 215<940.842 1226>
LayerCount: 2
Fore
SplineSet
235 1084 m 0
 235 1191 296 1283 401 1283 c 0
 507 1283 564 1194 564 1081 c 0
 564 976 507 884 400 884 c 0
 288 884 235 973 235 1084 c 0
400 1447 m 0
 159 1447 19 1288 19 1086 c 0
 19 878 150 720 403 720 c 0
 645 720 779 884 779 1082 c 0
 779 1284 643 1447 400 1447 c 0
EndSplineSet
EndChar

StartChar: oslash
Encoding: 248 248 227
Width: 1268
VWidth: 0
Flags: W
PickledData: "(dp1
S'org.robofab.postScriptHintData'
p2
(dp3
s."
HStem: -23 191<549.654 789.098> -20 20G<455.688 491> -20 20G<455.688 491> 861 191<483.902 720.081>
VStem: 100 246<312.166 711.993> 922 246<308.143 716.65>
LayerCount: 2
Fore
SplineSet
635 168 m 0x9c
 603 168 574 172 548 179 c 1
 830 786 l 1
 892 723 922 625 922 515 c 0
 922 328 839 168 635 168 c 0x9c
346 515 m 0
 346 707 437 861 635 861 c 0
 666 861 695 857 721 849 c 1
 439 242 l 1
 375 306 346 406 346 515 c 0
638 1052 m 0
 293 1052 100 805 100 513 c 0
 100 317 187 142 350 48 c 1
 266 -132 l 1
 377 -189 l 1
 465 0 l 1x5c
 517 -15 575 -23 638 -23 c 0
 978 -23 1168 225 1168 511 c 0
 1168 712 1085 890 921 983 c 1
 1012 1179 l 1
 901 1236 l 1
 805 1031 l 1
 755 1044 699 1052 638 1052 c 0
EndSplineSet
EndChar

StartChar: p
Encoding: 112 112 229
Width: 1248
VWidth: 0
Flags: W
PickledData: "(dp1
S'org.robofab.postScriptHintData'
p2
(dp3
s."
HStem: -23 191<488.646 780.618> 861 191<509.034 775.09>
VStem: 128 248<453.125 741.801 880 1026> 145 233<283.528 741.801> 902 246<304.897 724.782>
LayerCount: 2
Fore
SplineSet
635 168 m 0xc8
 445 168 366 328 366 515 c 0
 366 707 451 861 635 861 c 0
 819 861 902 707 902 515 c 0
 902 328 825 168 635 168 c 0xc8
378 95 m 1xd8
 456 25 560 -23 667 -23 c 0
 989 -23 1148 240 1148 525 c 0
 1148 809 978 1052 678 1052 c 0
 573 1052 433 994 376 880 c 1
 376 1026 l 1
 128 1026 l 1xe8
 135 919 145 793 145 692 c 2
 145 -400 l 1
 378 -400 l 1
 378 95 l 1xd8
EndSplineSet
EndChar

StartChar: paragraph
Encoding: 182 182 230
Width: 1214
VWidth: 0
Flags: W
PickledData: "(dp1
S'org.robofab.postScriptHintData'
p2
(dp3
s."
VStem: 77 519<918.574 1238.61>
LayerCount: 2
Fore
SplineSet
596 -139 m 1
 596 1242 l 1
 731 1242 l 1
 731 -139 l 1
 921 -139 l 1
 921 1242 l 1
 1004 1242 l 1
 1004 1424 l 1
 598 1424 l 2
 320 1424 77 1354 77 1094 c 0
 77 893 227 755 393 739 c 1
 393 -139 l 1
 596 -139 l 1
EndSplineSet
EndChar

StartChar: parenleft
Encoding: 40 40 231
Width: 628
VWidth: 0
Flags: W
PickledData: "(dp1
S'org.robofab.postScriptHintData'
p2
(dp3
s."
VStem: 112 236<272.626 913.575>
LayerCount: 2
Fore
SplineSet
619 -243 m 1
 460 15 348 320 348 581 c 0
 348 862 447 1154 619 1424 c 1
 389 1424 l 1
 223 1161 112 888 112 583 c 0
 112 293 237 0 397 -243 c 1
 619 -243 l 1
EndSplineSet
EndChar

StartChar: parenright
Encoding: 41 41 232
Width: 628
VWidth: 0
Flags: W
PickledData: "(dp1
S'org.robofab.postScriptHintData'
p2
(dp3
s."
VStem: 260 234<269.15 906.538>
LayerCount: 2
Fore
SplineSet
230 -243 m 1
 387 11 494 280 494 591 c 0
 494 879 377 1178 215 1424 c 1
 -10 1424 l 1
 163 1154 260 844 260 602 c 0
 260 300 151 6 -4 -243 c 1
 230 -243 l 1
EndSplineSet
EndChar

StartChar: partialdiff
Encoding: 8706 8706 233
Width: 1167
VWidth: 0
Flags: W
PickledData: "(dp1
S'org.robofab.postScriptHintData'
p2
(dp3
s."
HStem: -24 193<368.67 589.579> 815 187<457.375 707.878> 1312 189<394.15 689.157>
VStem: 53 241<248.061 624.931> 820 245<929 1145.5>
LayerCount: 2
Fore
SplineSet
566 1002 m 0
 280 1002 53 749 53 427 c 0
 53 172 199 -24 481 -24 c 0
 877 -24 1065 407 1065 828 c 0
 1065 1294 875 1501 565 1501 c 0
 447 1501 324 1461 237 1398 c 1
 251 1186 l 1
 353 1254 469 1312 549 1312 c 0
 715 1312 814 1170 820 929 c 1
 711 1005 622 1002 566 1002 c 0
481 169 m 0
 365 169 294 270 294 423 c 0
 294 633 422 815 589 815 c 0
 686 815 769 731 806 646 c 1
 762 406 639 169 481 169 c 0
EndSplineSet
EndChar

StartChar: percent
Encoding: 37 37 234
Width: 1985
VWidth: 0
Flags: W
PickledData: "(dp1
S'org.robofab.postScriptHintData'
p2
(dp3
s."
HStem: -27 150<1288.06 1491.94> 580 150<1287.89 1492.11> 653 150<414.057 617.943> 1260 150<413.887 618.113>
VStem: 153 201<864.767 1196.18> 678 201<864.767 1196.18> 1027 201<184.767 516.184> 1552 201<184.767 516.184>
LayerCount: 2
Fore
SplineSet
1390 -27 m 0xdf
 1614 -27 1753 135 1753 351 c 0
 1753 560 1615 730 1390 730 c 0
 1165 730 1027 560 1027 351 c 0
 1027 135 1166 -27 1390 -27 c 0xdf
1390 123 m 0
 1281 123 1228 224 1228 351 c 0
 1228 468 1274 580 1390 580 c 0
 1506 580 1552 468 1552 351 c 0
 1552 224 1499 123 1390 123 c 0
516 653 m 0xbf
 740 653 879 815 879 1031 c 0
 879 1240 741 1410 516 1410 c 0
 291 1410 153 1240 153 1031 c 0
 153 815 292 653 516 653 c 0xbf
516 803 m 0
 407 803 354 904 354 1031 c 0
 354 1148 400 1260 516 1260 c 0
 632 1260 678 1148 678 1031 c 0
 678 904 625 803 516 803 c 0
406 -5 m 1
 600 -5 l 1
 1509 1409 l 1
 1314 1409 l 1
 406 -5 l 1
EndSplineSet
EndChar

StartChar: period
Encoding: 46 46 235
Width: 540
VWidth: 0
Flags: W
PickledData: "(dp1
S'org.robofab.postScriptHintData'
p2
(dp3
s."
HStem: 0 262
VStem: 119 279
LayerCount: 2
Fore
SplineSet
398 262 m 1
 119 262 l 1
 119 0 l 1
 398 0 l 1
 398 262 l 1
EndSplineSet
EndChar

StartChar: periodcentered
Encoding: 65541 -1 236
Width: 444
VWidth: 0
Flags: W
PickledData: "(dp1
S'org.robofab.postScriptHintData'
p2
(dp3
s."
HStem: 482 263
VStem: 19 288
LayerCount: 2
Fore
SplineSet
307 745 m 1
 19 745 l 1
 19 482 l 1
 307 482 l 1
 307 745 l 1
EndSplineSet
EndChar

StartChar: perthousand
Encoding: 8240 8240 237
Width: 2386
VWidth: 0
Flags: W
PickledData: "(dp1
S'org.robofab.postScriptHintData'
p2
(dp3
s."
HStem: -43 150<1200.06 1403.94 2023.06 2226.94> 564 150<1199.89 1404.11 2022.89 2227.11> 637 150<326.057 529.943> 1244 150<325.887 530.113>
VStem: 65 201<848.767 1180.18> 590 201<848.767 1180.18> 939 201<168.767 500.184> 1464 201<168.767 500.184> 1762 201<168.767 500.184> 2287 201<168.767 500.184>
LayerCount: 2
Fore
SplineSet
2125 -43 m 0xdfc0
 2349 -43 2488 119 2488 335 c 0
 2488 544 2350 714 2125 714 c 0
 1900 714 1762 544 1762 335 c 0
 1762 119 1901 -43 2125 -43 c 0xdfc0
2125 107 m 0
 2016 107 1963 208 1963 335 c 0
 1963 452 2009 564 2125 564 c 0
 2241 564 2287 452 2287 335 c 0
 2287 208 2234 107 2125 107 c 0
1302 -43 m 0
 1526 -43 1665 119 1665 335 c 0
 1665 544 1527 714 1302 714 c 0
 1077 714 939 544 939 335 c 0
 939 119 1078 -43 1302 -43 c 0
1302 107 m 0
 1193 107 1140 208 1140 335 c 0
 1140 452 1186 564 1302 564 c 0
 1418 564 1464 452 1464 335 c 0
 1464 208 1411 107 1302 107 c 0
428 637 m 0xbfc0
 652 637 791 799 791 1015 c 0
 791 1224 653 1394 428 1394 c 0
 203 1394 65 1224 65 1015 c 0
 65 799 204 637 428 637 c 0xbfc0
428 787 m 0
 319 787 266 888 266 1015 c 0
 266 1132 312 1244 428 1244 c 0
 544 1244 590 1132 590 1015 c 0
 590 888 537 787 428 787 c 0
318 -21 m 1
 512 -21 l 1
 1421 1393 l 1
 1226 1393 l 1
 318 -21 l 1
EndSplineSet
EndChar

StartChar: plus
Encoding: 43 43 238
Width: 1458
VWidth: 0
Flags: W
PickledData: "(dp1
S'org.robofab.postScriptHintData'
p2
(dp3
s."
LayerCount: 2
Fore
SplineSet
166 651 m 1
 166 454 l 1
 586 454 l 1
 586 57 l 1
 807 57 l 1
 807 454 l 1
 1229 454 l 1
 1229 651 l 1
 808 651 l 1
 808 1047 l 1
 588 1047 l 1
 588 651 l 1
 166 651 l 1
EndSplineSet
EndChar

StartChar: plusminus
Encoding: 177 177 239
Width: 1458
VWidth: 0
Flags: W
PickledData: "(dp1
S'org.robofab.postScriptHintData'
p2
(dp3
s."
LayerCount: 2
Fore
SplineSet
229 749 m 1
 229 557 l 1
 586 557 l 1
 586 249 l 1
 814 249 l 1
 814 557 l 1
 1168 557 l 1
 1168 749 l 1
 805 749 l 1
 805 1062 l 1
 581 1062 l 1
 581 749 l 1
 229 749 l 1
1174 0 m 1
 1174 192 l 1
 227 192 l 1
 227 0 l 1
 1174 0 l 1
EndSplineSet
EndChar

StartChar: product
Encoding: 8719 8719 240
Width: 1568
VWidth: 0
Flags: W
PickledData: "(dp1
S'org.robofab.postScriptHintData'
p2
(dp3
s."
LayerCount: 2
Fore
SplineSet
476 -308 m 1
 476 1203 l 1
 1053 1203 l 1
 1053 -308 l 1
 1319 -308 l 1
 1319 1203 l 1
 1411 1203 l 1
 1446 1396 l 1
 59 1396 l 1
 93 1203 l 1
 217 1203 l 1
 217 -308 l 1
 476 -308 l 1
EndSplineSet
EndChar

StartChar: q
Encoding: 113 113 241
Width: 1241
VWidth: 0
Flags: W
PickledData: "(dp1
S'org.robofab.postScriptHintData'
p2
(dp3
s."
HStem: -23 191<467.382 759.354> 861 191<471.583 752.043>
VStem: 100 246<304.897 724.782> 870 233<283.528 741.801 910 1026>
LayerCount: 2
Fore
SplineSet
613 168 m 0
 423 168 346 328 346 515 c 0
 346 707 429 861 613 861 c 0
 797 861 882 707 882 515 c 0
 882 328 803 168 613 168 c 0
870 -400 m 1
 1103 -400 l 1
 1103 742 l 2
 1103 828 1106 934 1113 1026 c 1
 872 1026 l 1
 871 910 l 1
 791 1006 683 1052 584 1052 c 0
 272 1052 100 809 100 525 c 0
 100 240 259 -23 581 -23 c 0
 688 -23 792 25 870 95 c 1
 870 -400 l 1
EndSplineSet
EndChar

StartChar: question
Encoding: 63 63 242
Width: 1032
VWidth: 0
Flags: W
PickledData: "(dp1
S'org.robofab.postScriptHintData'
p2
(dp3
s."
HStem: 1248 206<231.589 610.006>
VStem: 298 224<426 602.306> 659 241<967.63 1198.89>
LayerCount: 2
Fore
SplineSet
551 262 m 1
 272 262 l 1
 272 0 l 1
 551 0 l 1
 551 262 l 1
144 1168 m 1
 246 1216 359 1248 453 1248 c 0
 571 1248 659 1204 659 1088 c 0
 659 885 298 772 298 513 c 2
 298 363 l 1
 523 363 l 1
 523 384 522 408 522 426 c 0
 522 478 525 519 539 555 c 0
 625 769 900 817 900 1095 c 0
 900 1337 718 1454 485 1454 c 0
 378 1454 260 1429 144 1380 c 1
 144 1168 l 1
EndSplineSet
EndChar

StartChar: quotedbl
Encoding: 34 34 244
Width: 720
VWidth: 0
Flags: W
PickledData: "(dp1
S'org.robofab.postScriptHintData'
p2
(dp3
s."
HStem: 926 498
VStem: 123 162<926 1065.99> 445 161<926 1065.99>
LayerCount: 2
Fore
SplineSet
285 926 m 1
 332 1424 l 1
 72 1424 l 1
 123 926 l 1
 285 926 l 1
606 926 m 1
 656 1424 l 1
 394 1424 l 1
 445 926 l 1
 606 926 l 1
EndSplineSet
EndChar

StartChar: quotedblbase
Encoding: 8222 8222 245
Width: 1024
VWidth: 0
Flags: W
PickledData: "(dp1
S'org.robofab.postScriptHintData'
p2
(dp3
s."
HStem: -223 476
LayerCount: 2
Fore
SplineSet
466 -223 m 1
 670 -223 l 1
 837 253 l 1
 577 253 l 1
 466 -223 l 1
130 -223 m 1
 339 -223 l 1
 500 253 l 1
 240 253 l 1
 130 -223 l 1
EndSplineSet
EndChar

StartChar: quotedblleft
Encoding: 8220 8220 246
Width: 1024
VWidth: 0
Flags: W
PickledData: "(dp1
S'org.robofab.postScriptHintData'
p2
(dp3
s."
HStem: 959 477
LayerCount: 2
Fore
SplineSet
957 1436 m 1
 750 1436 l 1
 603 959 l 1
 845 959 l 1
 957 1436 l 1
567 1436 m 1
 359 1436 l 1
 193 959 l 1
 454 959 l 1
 567 1436 l 1
EndSplineSet
EndChar

StartChar: quotedblright
Encoding: 8221 8221 247
Width: 1024
VWidth: 0
Flags: W
PickledData: "(dp1
S'org.robofab.postScriptHintData'
p2
(dp3
s."
HStem: 959 477
LayerCount: 2
Fore
SplineSet
584 959 m 1
 787 959 l 1
 955 1436 l 1
 696 1436 l 1
 584 959 l 1
221 959 m 1
 425 959 l 1
 592 1436 l 1
 330 1436 l 1
 221 959 l 1
EndSplineSet
EndChar

StartChar: quoteleft
Encoding: 8216 8216 248
Width: 553
VWidth: 0
Flags: W
PickledData: "(dp1
S'org.robofab.postScriptHintData'
p2
(dp3
s."
HStem: 959 477
LayerCount: 2
Fore
SplineSet
449 1436 m 1
 245 1436 l 1
 79 959 l 1
 339 959 l 1
 449 1436 l 1
EndSplineSet
EndChar

StartChar: quoteright
Encoding: 8217 8217 249
Width: 553
VWidth: 0
Flags: W
PickledData: "(dp1
S'org.robofab.postScriptHintData'
p2
(dp3
s."
HStem: 959 477
LayerCount: 2
Fore
SplineSet
88 959 m 1
 291 959 l 1
 458 1436 l 1
 199 1436 l 1
 88 959 l 1
EndSplineSet
EndChar

StartChar: quotesinglbase
Encoding: 8218 8218 250
Width: 553
VWidth: 0
Flags: W
PickledData: "(dp1
S'org.robofab.postScriptHintData'
p2
(dp3
s."
HStem: -223 476
LayerCount: 2
Fore
SplineSet
72 -223 m 1
 279 -223 l 1
 445 253 l 1
 186 253 l 1
 72 -223 l 1
EndSplineSet
EndChar

StartChar: quotesingle
Encoding: 39 39 251
Width: 554
VWidth: 0
Flags: W
PickledData: "(dp1
S'org.robofab.postScriptHintData'
p2
(dp3
s."
HStem: 926 498
VStem: 168 188<926 1109.06>
LayerCount: 2
Fore
SplineSet
356 926 m 1
 391 1424 l 1
 129 1424 l 1
 168 926 l 1
 356 926 l 1
EndSplineSet
EndChar

StartChar: r
Encoding: 114 114 252
Width: 763
VWidth: 0
Flags: W
PickledData: "(dp1
S'org.robofab.postScriptHintData'
p2
(dp3
s."
HStem: 851 201<495.067 740.149>
VStem: 128 251<886.159 1026> 146 236<579 750.286 886 1022.73>
LayerCount: 2
Fore
SplineSet
382 0 m 1xa0
 382 579 l 2xa0
 382 761 485 851 620 851 c 0
 658 851 700 844 742 830 c 1
 742 1037 l 1
 705 1047 670 1052 639 1052 c 0
 530 1052 451 988 379 886 c 1
 379 1026 l 1
 128 1026 l 1xc0
 134 957 146 832 146 768 c 2
 146 0 l 1
 382 0 l 1xa0
EndSplineSet
EndChar

StartChar: radical
Encoding: 8730 8730 253
Width: 1314
VWidth: 0
Flags: W
PickledData: "(dp1
S'org.robofab.postScriptHintData'
p2
(dp3
s."
LayerCount: 2
Fore
SplineSet
633 243 m 1
 408 841 l 1
 49 783 l 1
 90 613 l 1
 240 640 l 2
 243 640 249 642 252 643 c 1
 561 -144 l 1
 756 -144 l 1
 1210 1560 l 1
 996 1560 l 1
 643 260 l 1
 637 231 l 1
 633 243 l 1
EndSplineSet
EndChar

StartChar: registered
Encoding: 174 174 256
Width: 1829
VWidth: 0
Flags: W
PickledData: "(dp1
S'org.robofab.postScriptHintData'
p2
(dp3
s."
HStem: -23 119<649.853 1138.89> 1045 169<837 1035.5> 1363 120<647.736 1135.86>
VStem: 84 143<510.268 960.936> 1055 211<841.965 1023.8> 1559 144<500.436 950.557>
LayerCount: 2
Fore
SplineSet
897 -23 m 0
 1340 -23 1703 319 1703 730 c 0
 1703 1136 1340 1483 889 1483 c 0
 449 1483 84 1141 84 733 c 0
 84 321 443 -23 897 -23 c 0
895 96 m 0
 517 96 227 372 227 733 c 0
 227 1091 515 1363 892 1363 c 0
 1269 1363 1559 1090 1559 728 c 0
 1559 371 1270 96 895 96 c 0
749 1045 m 1
 841 1045 l 2
 999 1045 1055 1034 1055 926 c 0
 1055 829 978 820 847 820 c 2
 749 820 l 1
 749 1045 l 1
840 652 m 1
 888 626 920 572 1055 288 c 1
 1316 288 l 1
 1166 548 1109 636 1035 685 c 1
 1209 717 1266 826 1266 939 c 0
 1266 1116 1125 1214 837 1214 c 2
 538 1214 l 1
 538 288 l 1
 749 288 l 1
 749 652 l 1
 840 652 l 1
EndSplineSet
EndChar

StartChar: ring
Encoding: 730 730 257
Width: 605
VWidth: 0
Flags: W
PickledData: "(dp1
S'org.robofab.postScriptHintData'
p2
(dp3
s."
HStem: 1079 127<126.508 245.356> 1372 127<127.247 244.117>
VStem: -44 164<1212.4 1365.77> 254 164<1209.77 1365.47>
LayerCount: 2
Fore
SplineSet
188 1079 m 0
 343 1079 418 1182 418 1286 c 0
 418 1391 340 1499 188 1499 c 0
 34 1499 -44 1391 -44 1286 c 0
 -44 1182 31 1079 188 1079 c 0
120 1287 m 0
 120 1344 152 1372 187 1372 c 0
 220 1372 254 1344 254 1286 c 0
 254 1232 221 1206 188 1206 c 0
 153 1206 120 1233 120 1287 c 0
EndSplineSet
EndChar

StartChar: s
Encoding: 115 115 258
Width: 1034
VWidth: 0
Flags: W
PickledData: "(dp1
S'org.robofab.postScriptHintData'
p2
(dp3
s."
HStem: -23 191<288.386 673.946> 861 191<391.948 744.542>
VStem: 124 241<693.218 830.976> 706 239<201.966 355.322>
LayerCount: 2
Fore
SplineSet
119 98 m 1
 257 -8 443 -23 568 -23 c 0
 714 -23 945 58 945 293 c 0
 945 495 743 568 582 618 c 0
 479 651 365 689 365 759 c 0
 365 853 503 861 536 861 c 0
 606 861 709 846 821 777 c 1
 887 951 l 1
 759 1048 613 1052 514 1052 c 0
 355 1052 124 974 124 756 c 0
 124 529 328 469 501 417 c 0
 611 384 706 355 706 289 c 0
 706 171 566 168 523 168 c 0
 426 168 292 192 175 273 c 1
 119 98 l 1
EndSplineSet
EndChar

StartChar: section
Encoding: 167 167 262
Width: 1097
VWidth: 0
Flags: W
PickledData: "(dp1
S'org.robofab.postScriptHintData'
p2
(dp3
s."
HStem: -23 191<241.991 618.848> 1291 192<436.761 825.003>
VStem: 149 251<680.433 853.927> 181 246<1129.51 1274.9> 646 245<199.058 342.916> 651 261<614.369 794.792>
LayerCount: 2
Fore
SplineSet
400 757 m 0xe4
 400 814 424 838 463 870 c 1
 577 816 651 795 651 710 c 0
 651 660 628 627 605 601 c 1
 465 664 400 685 400 757 c 0xe4
835 1435 m 1
 744 1467 647 1483 556 1483 c 0
 353 1483 181 1397 181 1195 c 0xd4
 181 1089 223 1025 298 967 c 1
 216 912 149 828 149 734 c 0
 149 617 238 526 363 465 c 0
 581 358 646 334 646 281 c 0
 646 198 574 168 480 168 c 0
 384 168 264 200 174 237 c 1
 174 37 l 1
 277 -3 387 -23 490 -23 c 0
 708 -23 891 71 891 287 c 0xe8
 891 392 842 463 765 510 c 1
 844 573 912 649 912 744 c 0
 912 887 777 959 641 1030 c 1
 501 1096 427 1145 427 1207 c 0xd4
 427 1280 495 1291 578 1291 c 0
 669 1291 777 1265 835 1250 c 1
 835 1435 l 1
EndSplineSet
EndChar

StartChar: semicolon
Encoding: 59 59 263
Width: 540
VWidth: 0
Flags: W
PickledData: "(dp1
S'org.robofab.postScriptHintData'
p2
(dp3
s."
LayerCount: 2
Fore
SplineSet
425 1141 m 1
 178 1141 l 1
 178 879 l 1
 425 879 l 1
 425 1141 l 1
72 -240 m 1
 271 -240 l 1
 447 259 l 1
 180 259 l 1
 72 -240 l 1
EndSplineSet
EndChar

StartChar: seven
Encoding: 55 55 264
Width: 1138
VWidth: 0
Flags: W
PickledData: "(dp1
S'org.robofab.postScriptHintData'
p2
(dp3
s."
LayerCount: 2
Fore
SplineSet
65 1393 m 1
 65 1194 l 1
 777 1194 l 1
 236 0 l 1
 495 0 l 1
 1056 1272 l 1
 1056 1393 l 1
 65 1393 l 1
EndSplineSet
EndChar

StartChar: six
Encoding: 54 54 265
Width: 1242
VWidth: 0
Flags: W
PickledData: "(dp1
S'org.robofab.postScriptHintData'
p2
(dp3
s."
HStem: -23 199<510.801 787.571> 730 191<501.992 795.209> 1231 195<568.43 898.976>
VStem: 120 270<353.549 824.803> 120 255<769 979.606> 897 250<289.057 625.486>
LayerCount: 2
Fore
SplineSet
659 730 m 0xf4
 817 730 897 608 897 452 c 0
 897 296 800 176 648 176 c 0
 517 176 390 280 390 456 c 0
 390 614 493 730 659 730 c 0xf4
1071 1304 m 1
 980 1385 854 1426 706 1426 c 0
 321 1426 120 1084 120 670 c 0xf4
 120 256 295 -23 653 -23 c 0
 956 -23 1147 183 1147 455 c 0
 1147 740 961 921 678 921 c 0
 562 921 454 878 375 769 c 1xec
 383 1026 511 1231 708 1231 c 0
 812 1231 905 1195 991 1131 c 1
 1071 1304 l 1
EndSplineSet
EndChar

StartChar: slash
Encoding: 47 47 266
Width: 717
VWidth: 0
Flags: W
PickledData: "(dp1
S'org.robofab.postScriptHintData'
p2
(dp3
s."
LayerCount: 2
Fore
SplineSet
150 -201 m 1
 774 1424 l 1
 531 1424 l 1
 -88 -201 l 1
 150 -201 l 1
EndSplineSet
EndChar

StartChar: sterling
Encoding: 163 163 268
Width: 1189
VWidth: 0
Flags: W
PickledData: "(dp1
S'org.robofab.postScriptHintData'
p2
(dp3
s."
HStem: 1290 193<595.536 963.781>
VStem: 252 239<344.966 661 838 1177.34>
LayerCount: 2
Fore
SplineSet
1063 1410 m 1
 974 1460 868 1483 736 1483 c 0
 335 1483 252 1220 252 901 c 2
 252 838 l 1
 83 838 l 1
 83 661 l 1
 255 661 l 1
 255 616 l 2
 255 335 162 252 81 179 c 1
 84 0 l 1
 1074 0 l 1
 1074 195 l 1
 412 195 l 1
 484 291 504 575 504 661 c 1
 808 661 l 1
 808 838 l 1
 496 838 l 1
 492 878 491 920 491 955 c 0
 491 1195 573 1290 753 1290 c 0
 848 1290 929 1263 1007 1227 c 1
 1063 1410 l 1
EndSplineSet
EndChar

StartChar: summation
Encoding: 8721 8721 269
Width: 1264
VWidth: 0
Flags: W
PickledData: "(dp1
S'org.robofab.postScriptHintData'
p2
(dp3
s."
LayerCount: 2
Fore
SplineSet
397 1200 m 1
 1163 1200 l 1
 1163 1396 l 1
 50 1396 l 1
 50 1272 l 1
 622 553 l 1
 28 -180 l 1
 28 -308 l 1
 1206 -308 l 1
 1206 -105 l 1
 381 -105 l 1
 909 556 l 1
 397 1200 l 1
EndSplineSet
EndChar

StartChar: t
Encoding: 116 116 270
Width: 797
VWidth: 0
Flags: W
PickledData: "(dp1
S'org.robofab.postScriptHintData'
p2
(dp3
s."
HStem: 1 181<477.733 674>
VStem: 197 235<228.457 388>
LayerCount: 2
Fore
SplineSet
197 388 m 2
 197 -14 458 1 674 1 c 1
 674 182 l 1
 534 182 432 180 432 360 c 2
 432 868 l 1
 673 868 l 1
 673 1026 l 1
 432 1026 l 1
 432 1340 l 1
 205 1271 l 1
 205 1026 l 1
 4 1026 l 1
 4 868 l 1
 197 868 l 1
 197 388 l 2
EndSplineSet
EndChar

StartChar: thorn
Encoding: 254 254 272
Width: 1230
VWidth: 0
Flags: W
PickledData: "(dp1
S'org.robofab.postScriptHintData'
p2
(dp3
s."
HStem: -23 190<480.824 763.234> 859 192<485.665 767.081>
VStem: 143 223<295.17 721.779> 882 248<306.766 737.847>
LayerCount: 2
Fore
SplineSet
366 494 m 0
 366 685 433 859 630 859 c 0
 820 859 882 696 882 521 c 0
 882 335 805 167 622 167 c 0
 453 167 366 306 366 494 c 0
366 59 m 1
 444 8 543 -23 650 -23 c 0
 972 -23 1130 240 1130 525 c 0
 1130 808 974 1051 626 1051 c 0
 534 1051 447 1015 368 962 c 1
 371 1542 l 1
 143 1542 l 1
 143 -400 l 1
 365 -400 l 1
 366 59 l 1
EndSplineSet
EndChar

StartChar: three
Encoding: 51 51 273
Width: 1250
VWidth: 0
Flags: W
PickledData: "(dp1
S'org.robofab.postScriptHintData'
p2
(dp3
s."
HStem: -23 199<375.755 742.359> 629 195<495 717.414> 1225 197<371.287 743.815>
VStem: 808 256<907.885 1164.39> 851 250<273.247 537.377>
LayerCount: 2
Fore
SplineSet
210 1040 m 1xf0
 298 1169 429 1225 578 1225 c 0
 710 1225 808 1169 808 1054 c 0xf0
 808 879 698 824 495 824 c 0
 487 824 425 824 391 825 c 1
 396 627 l 1
 438 629 487 629 511 629 c 0
 722 629 851 566 851 403 c 0
 851 263 730 176 579 176 c 0
 421 176 281 244 207 366 c 1
 80 203 l 1
 152 54 347 -23 588 -23 c 0
 863 -23 1101 136 1101 398 c 0xe8
 1101 565 979 705 779 742 c 1
 979 772 1064 903 1064 1048 c 0
 1064 1292 831 1422 591 1422 c 0
 361 1422 178 1349 66 1202 c 1
 210 1040 l 1xf0
EndSplineSet
EndChar

StartChar: threesuperior
Encoding: 179 179 275
Width: 1190
VWidth: 0
Flags: W
PickledData: "(dp1
S'org.robofab.postScriptHintData'
p2
(dp3
s."
HStem: 547 166<301.546 572.559> 908 177<418 555.159> 1247 166<292.277 554.593>
VStem: 565 199<1102.82 1234.99> 587 197<727.67 886.891>
LayerCount: 2
Fore
SplineSet
229 1169 m 1xf0
 307 1217 397 1247 469 1247 c 0
 524 1247 565 1220 565 1165 c 0xf0
 565 1105 502 1085 418 1085 c 2
 334 1085 l 1
 334 908 l 1
 421 908 l 2
 525 908 587 883 587 816 c 0
 587 749 546 713 483 713 c 0
 430 713 335 730 239 791 c 1
 172 641 l 1
 269 580 383 547 485 547 c 0
 648 547 784 630 784 813 c 0xe8
 784 893 741 958 644 1001 c 1
 739 1038 764 1125 764 1188 c 0
 764 1334 620 1413 481 1413 c 0
 365 1413 251 1372 163 1317 c 1
 229 1169 l 1xf0
EndSplineSet
EndChar

StartChar: tilde
Encoding: 732 732 276
Width: 663
VWidth: 0
Flags: W
PickledData: "(dp1
S'org.robofab.postScriptHintData'
p2
(dp3
s."
HStem: 1122 181<269.389 415.842> 1228 180<52.0554 211.684>
VStem: -113 152<1127 1223.94> 427 155<1307.23 1408>
LayerCount: 2
Fore
SplineSet
427 1408 m 1x70
 419 1343 414 1303 373 1303 c 0xb0
 314 1303 203 1408 88 1408 c 0
 -38 1408 -103 1283 -113 1127 c 1
 39 1127 l 1
 46 1201 69 1228 98 1228 c 0x70
 161 1228 290 1122 385 1122 c 0xb0
 517 1122 568 1260 582 1408 c 1
 427 1408 l 1x70
EndSplineSet
EndChar

StartChar: trademark
Encoding: 8482 8482 277
Width: 1869
VWidth: 0
Flags: W
PickledData: "(dp1
S'org.robofab.postScriptHintData'
p2
(dp3
s."
LayerCount: 2
Fore
SplineSet
53 1424 m 1
 53 1264 l 1
 296 1264 l 1
 296 643 l 1
 480 643 l 1
 480 1264 l 1
 742 1264 l 1
 728 1424 l 1
 53 1424 l 1
762 1424 m 1
 762 643 l 1
 939 643 l 1
 939 1058 l 1
 1118 643 l 1
 1253 643 l 1
 1450 1068 l 1
 1450 643 l 1
 1632 643 l 1
 1632 1424 l 1
 1399 1424 l 1
 1198 962 l 1
 1005 1424 l 1
 762 1424 l 1
EndSplineSet
EndChar

StartChar: two
Encoding: 50 50 278
Width: 1260
VWidth: 0
Flags: W
PickledData: "(dp1
S'org.robofab.postScriptHintData'
p2
(dp3
s."
HStem: 1226 195<454.126 777.408>
VStem: 849 245<909.697 1154.21>
LayerCount: 2
Fore
SplineSet
282 1028 m 1
 365 1151 490 1226 627 1226 c 0
 756 1226 849 1162 849 1029 c 0
 849 840 345 384 142 178 c 1
 142 0 l 1
 1099 0 l 1
 1099 199 l 1
 456 199 l 1
 507 249 l 2
 713 450 1094 769 1094 1038 c 0
 1094 1273 905 1421 632 1421 c 0
 413 1421 232 1326 137 1168 c 1
 282 1028 l 1
EndSplineSet
EndChar

StartChar: twosuperior
Encoding: 178 178 279
Width: 1190
VWidth: 0
Flags: W
PickledData: "(dp1
S'org.robofab.postScriptHintData'
p2
(dp3
s."
HStem: 1247 166<362.301 634.548>
VStem: 646 194<1055.14 1234.06>
LayerCount: 2
Fore
SplineSet
299 1169 m 1
 374 1215 466 1247 536 1247 c 0
 600 1247 646 1221 646 1156 c 0
 646 1093 588 1000 245 725 c 1
 245 564 l 1
 829 564 l 1
 829 741 l 1
 518 741 l 1
 686 867 840 996 840 1158 c 0
 840 1335 707 1413 549 1413 c 0
 445 1413 329 1379 234 1317 c 1
 299 1169 l 1
EndSplineSet
EndChar

StartChar: u
Encoding: 117 117 280
Width: 1173
VWidth: 0
Flags: W
PickledData: "(dp1
S'org.robofab.postScriptHintData'
p2
(dp3
s."
HStem: -23 191<421.181 694.651>
VStem: 118 234<236.634 396> 791 236<0.111347 107 264.216 412> 799 246<0 106.689>
LayerCount: 2
Fore
SplineSet
791 412 m 2xe0
 791 284 705 168 553 168 c 0
 426 168 352 241 352 388 c 2
 352 1026 l 1
 118 1026 l 1
 118 396 l 2
 118 195 202 -23 520 -23 c 0
 627 -23 761 40 794 107 c 1
 799 0 l 1
 1045 0 l 1xd0
 1045 0 1027 153 1027 272 c 2
 1027 1026 l 1
 791 1026 l 1
 791 412 l 2xe0
EndSplineSet
EndChar

StartChar: underscore
Encoding: 95 95 285
Width: 998
VWidth: 0
Flags: W
PickledData: "(dp1
S'org.robofab.postScriptHintData'
p2
(dp3
s."
HStem: -257 186
LayerCount: 2
Fore
SplineSet
989 -71 m 1
 -33 -71 l 1
 -33 -257 l 1
 989 -257 l 1
 989 -71 l 1
EndSplineSet
EndChar

StartChar: uni00AF
Encoding: 175 175 287
Width: 850
VWidth: 0
Flags: W
PickledData: "(dp1
S'org.robofab.postScriptHintData'
p2
(dp3
s."
HStem: 1294 185
LayerCount: 2
Fore
SplineSet
957 1479 m 1
 79 1479 l 1
 79 1294 l 1
 957 1294 l 1
 957 1479 l 1
EndSplineSet
EndChar

StartChar: uni030F
Encoding: 783 783 316
Width: 969
VWidth: 0
Flags: W
PickledData: "(dp1
S'org.robofab.postScriptHintData'
p2
(dp3
s."
HStem: 1105 358
LayerCount: 2
Fore
SplineSet
571 1105 m 1
 273 1463 l 1
 541 1463 l 1
 741 1105 l 1
 571 1105 l 1
247 1105 m 1
 -97 1463 l 1
 187 1463 l 1
 424 1105 l 1
 247 1105 l 1
EndSplineSet
EndChar

StartChar: uni0311
Encoding: 785 785 317
Width: 629
VWidth: 0
Flags: W
PickledData: "(dp1
S'org.robofab.postScriptHintData'
p2
(dp3
s."
HStem: 1261 166<177.777 406.223>
VStem: -20 165<1142 1225.77> 439 165<1142 1225.77>
LayerCount: 2
Fore
SplineSet
292 1261 m 0
 354 1261 430 1237 439 1142 c 1
 604 1142 l 1
 590 1337 478 1427 292 1427 c 0
 106 1427 -6 1337 -20 1142 c 1
 145 1142 l 1
 154 1237 230 1261 292 1261 c 0
EndSplineSet
EndChar

StartChar: uni0326
Encoding: 806 806 318
Width: 540
VWidth: 0
Flags: W
PickledData: "(dp1
S'org.robofab.postScriptHintData'
p2
(dp3
s."
HStem: -679 499
LayerCount: 2
Fore
SplineSet
10 -679 m 1
 210 -679 l 1
 388 -180 l 1
 122 -180 l 1
 10 -679 l 1
EndSplineSet
EndChar

StartChar: uni2206
Encoding: 8710 8710 319
Width: 1309
VWidth: 0
Flags: W
PickledData: "(dp1
S'org.robofab.postScriptHintData'
p2
(dp3
s."
LayerCount: 2
Fore
SplineSet
332 216 m 1
 427 486 521 745 616 1016 c 1
 718 740 811 490 913 216 c 1
 332 216 l 1
1241 103 m 1
 738 1402 l 1
 514 1402 l 1
 10 103 l 1
 10 0 l 1
 1241 0 l 1
 1241 103 l 1
EndSplineSet
EndChar

StartChar: v
Encoding: 118 118 320
Width: 1124
VWidth: 0
Flags: W
PickledData: "(dp1
S'org.robofab.postScriptHintData'
p2
(dp3
s."
LayerCount: 2
Fore
SplineSet
571 260 m 1
 283 1026 l 1
 21 1026 l 1
 453 0 l 1
 669 0 l 1
 1103 1026 l 1
 848 1026 l 1
 571 260 l 1
EndSplineSet
EndChar

StartChar: w
Encoding: 119 119 321
Width: 1695
VWidth: 0
Flags: W
PickledData: "(dp1
S'org.robofab.postScriptHintData'
p2
(dp3
s."
LayerCount: 2
Fore
SplineSet
27 1026 m 1
 395 0 l 1
 596 0 l 1
 851 724 l 1
 1090 0 l 1
 1290 0 l 1
 1668 1026 l 1
 1447 1026 l 1
 1209 286 l 1
 972 1026 l 1
 766 1026 l 1
 518 288 l 1
 280 1026 l 1
 27 1026 l 1
EndSplineSet
EndChar

StartChar: x
Encoding: 120 120 322
Width: 1093
VWidth: 0
Flags: W
PickledData: "(dp1
S'org.robofab.postScriptHintData'
p2
(dp3
s."
LayerCount: 2
Fore
SplineSet
1084 0 m 1
 696 518 l 1
 1074 1026 l 1
 809 1026 l 1
 678 841 l 1
 557 671 l 1
 313 1026 l 1
 29 1026 l 1
 411 514 l 1
 9 0 l 1
 287 0 l 1
 369 117 457 246 538 363 c 1
 801 0 l 1
 1084 0 l 1
EndSplineSet
EndChar

StartChar: y
Encoding: 121 121 323
Width: 1144
VWidth: 0
Flags: W
PickledData: "(dp1
S'org.robofab.postScriptHintData'
p2
(dp3
s."
HStem: -406 166<248.514 353>
LayerCount: 2
Fore
SplineSet
459 36 m 1
 449 2 l 2
 424 -80 353 -179 127 -240 c 1
 260 -406 l 1
 472 -364 612 -221 683 -49 c 2
 1123 1026 l 1
 872 1026 l 1
 586 304 l 1
 305 1026 l 1
 44 1026 l 1
 459 36 l 1
EndSplineSet
EndChar

StartChar: yen
Encoding: 165 165 326
Width: 1189
VWidth: 0
Flags: W
PickledData: "(dp1
S'org.robofab.postScriptHintData'
p2
(dp3
s."
LayerCount: 2
Fore
SplineSet
88 722 m 1
 88 539 l 1
 454 539 l 1
 454 448 l 1
 88 448 l 1
 88 271 l 1
 462 271 l 1
 462 0 l 1
 705 0 l 1
 705 271 l 1
 1058 271 l 1
 1058 448 l 1
 697 448 l 1
 697 539 l 1
 1056 539 l 1
 1056 722 l 1
 743 722 l 1
 1168 1393 l 1
 899 1393 l 1
 587 852 l 1
 269 1393 l 1
 -21 1393 l 1
 384 722 l 1
 88 722 l 1
EndSplineSet
EndChar

StartChar: z
Encoding: 122 122 327
Width: 1042
VWidth: 0
Flags: W
PickledData: "(dp1
S'org.robofab.postScriptHintData'
p2
(dp3
s."
LayerCount: 2
Fore
SplineSet
103 0 m 1
 992 0 l 1
 968 188 l 1
 428 188 l 1
 957 903 l 1
 957 1026 l 1
 127 1026 l 1
 127 837 l 1
 633 837 l 1
 103 125 l 1
 103 0 l 1
EndSplineSet
EndChar

StartChar: zero
Encoding: 48 48 331
Width: 1259
VWidth: 0
Flags: W
PickledData: "(dp1
S'org.robofab.postScriptHintData'
p2
(dp3
s."
HStem: -23 199<498.63 748.017> 1231 195<507.448 750.553>
VStem: 114 250<372.204 1026.77> 887 258<368.153 1043.64>
LayerCount: 2
Fore
SplineSet
630 1231 m 0
 858 1231 887 910 887 678 c 0
 887 385 806 176 630 176 c 0
 401 176 364 478 364 716 c 0
 364 1016 448 1231 630 1231 c 0
628 1426 m 0
 292 1426 114 1153 114 704 c 0
 114 277 259 -23 626 -23 c 0
 965 -23 1145 255 1145 680 c 0
 1145 1115 1024 1426 628 1426 c 0
EndSplineSet
EndChar
